<svg width="87" height="89" viewBox="0 0 87 89" fill="none" xmlns="http://www.w3.org/2000/svg">
<path fill-rule="evenodd" clip-rule="evenodd" d="M52.7021 0.799877C52.4507 1.26162 51.976 1.97021 51.6478 2.3742C51.3196 2.77846 51.1219 3.17976 51.2086 3.26652C51.5081 3.56629 52.6083 2.60789 52.889 1.8026C53.22 0.853599 53.7088 0.981995 53.5203 1.96833C53.34 2.91169 53.8542 2.81821 54.2622 1.83349C54.5534 1.13054 54.534 0.949492 54.1187 0.490438C53.466 -0.230512 53.2364 -0.18055 52.7021 0.799877ZM44.4587 1.18909C43.774 1.82355 43.7246 1.99895 43.8605 3.31595C43.979 4.46452 43.9159 4.8352 43.5433 5.17231C43.1149 5.56018 42.9897 5.50861 41.9636 4.52281C40.7726 3.37826 40.0479 3.19695 39.3704 3.87412C38.88 4.36487 38.8364 4.89 39.2265 5.61874C39.5904 6.29859 40.2915 6.28704 40.2915 5.60101C40.2915 4.95769 40.7044 4.88946 40.9364 5.49464C41.0331 5.74633 41.2727 5.85995 41.5126 5.76782C41.7415 5.67998 41.9888 5.78017 42.0708 5.99345C42.3163 6.63328 43.9645 6.32196 44.5984 5.51613C44.9197 5.10784 45.3089 4.88194 45.5393 4.97032C46.1442 5.20266 46.0048 4.54 45.3279 3.96545C44.7996 3.51687 44.7743 3.41023 45.1265 3.11664C45.3481 2.93183 45.5294 2.59929 45.5294 2.37769C45.5294 2.15394 45.7682 1.97478 46.0666 1.97478C46.4564 1.97478 46.5974 2.14615 46.5805 2.59903C46.5625 3.07205 46.6734 3.19292 47.0379 3.09757C47.6466 2.93828 48.4943 3.53809 48.2407 3.94852C48.1355 4.11882 48.1645 4.25796 48.3052 4.25796C48.446 4.25796 48.6305 4.07665 48.7157 3.85505C48.8005 3.63344 49.0552 3.45213 49.2816 3.45213C49.7732 3.45213 49.8121 3.76265 49.3751 4.19967C49.2002 4.37454 49.1497 4.61011 49.2625 4.72319C49.5626 5.02323 50.2636 3.9496 50.1731 3.32884C50.1197 2.96272 49.7836 2.72527 49.0885 2.56142C48.2751 2.3699 48.0812 2.20202 48.0812 1.68898C48.0812 0.363654 45.7035 0.0354128 44.4587 1.18909ZM55.3785 4.66732C51.7859 5.33885 46.9321 7.24544 47.4629 7.77622C48.0992 8.41255 49.8747 8.36017 52.0325 7.64164C54.5426 6.80546 59.9836 5.70792 62.9219 5.44468L65.0036 5.25827V6.06463C65.0036 7.31394 64.5008 9.66804 64.1414 10.101C63.8636 10.4357 63.7492 10.4064 63.3361 9.89635C62.9447 9.41312 62.6836 9.33389 61.9417 9.47303C61.3307 9.58772 60.4418 9.45154 59.2527 9.06125C57.6604 8.53853 57.428 8.52 57.0093 8.88343C56.5169 9.31079 54.6554 9.24793 54.3753 8.79478C54.1306 8.39885 53.2283 8.52564 52.9669 8.99275C52.7768 9.33227 52.6089 9.36666 52.2151 9.14613C51.8278 8.92936 51.5927 8.96643 51.2212 9.30273C50.7998 9.68415 50.7018 9.6906 50.4898 9.35081C50.178 8.85039 49.3348 9.31347 49.1951 10.0618C49.1427 10.3414 48.9262 10.7669 48.7135 11.0071C48.3745 11.3901 48.3828 11.4656 48.7815 11.6187C49.1954 11.7774 49.1865 11.8467 48.6837 12.3904C48.2719 12.8355 48.1602 13.2416 48.2453 13.983C48.3366 14.7767 48.2501 15.0367 47.8177 15.2683C47.129 15.6368 47.0433 16.9549 47.725 16.6933C48.0747 16.559 48.1333 16.6283 47.9888 17.0043C47.8687 17.3175 47.9705 17.6181 48.2781 17.8571C48.7251 18.2045 48.7143 18.2585 48.0954 18.7817C47.5528 19.2405 47.5061 19.3804 47.8268 19.5832C48.0406 19.7186 48.3248 19.8309 48.4586 19.8333C48.8064 19.8392 47.7892 20.9118 47.4352 20.9123C47.2735 20.9129 47.1282 21.2755 47.1126 21.7181C47.0943 22.2312 47.2163 22.5234 47.4483 22.5234C47.6487 22.5234 47.8126 22.6975 47.8126 22.9105C47.8126 23.4512 48.3372 23.718 48.6955 23.3596C48.915 23.1402 48.8671 23.0607 48.5155 23.0607C48.2515 23.0607 48.0868 22.9097 48.1483 22.7249C48.2099 22.5404 48.4919 22.3891 48.775 22.3891C49.0581 22.3891 49.2596 22.5404 49.2228 22.7249C49.1398 23.1399 50.1293 23.1724 50.3824 22.763C50.4955 22.5798 50.9596 22.5285 51.5906 22.6293C52.1719 22.7222 52.687 22.6768 52.7816 22.524C52.8729 22.376 53.5984 22.2548 54.3935 22.2548C55.1886 22.2548 55.9104 22.1396 55.9974 21.9986C56.0844 21.8578 56.847 21.7713 57.6921 21.8063C58.9309 21.8578 59.4971 21.7273 60.6151 21.1323C62.0014 20.3944 62.0019 20.3944 62.667 20.918C63.2501 21.3765 63.3737 21.3918 63.6638 21.0423C63.8459 20.8229 64.1951 20.6432 64.4395 20.6432C64.6842 20.6432 65.1017 20.3891 65.3676 20.0786C65.6934 19.6982 66.0633 19.5545 66.5017 19.6386C67.0676 19.7466 67.1525 19.6627 67.1525 18.9942C67.1525 18.0788 67.3585 18.0484 68.6006 18.7812C69.7497 19.4591 71.2491 21.665 72.5124 24.5367C73.3206 26.374 73.4581 26.9802 73.4562 28.7015C73.4538 30.9538 73.2161 31.5469 71.3111 34.0516C69.8684 35.9488 68.74 36.8304 66.0979 38.1243C61.754 40.2514 57.4616 41.2225 53.3545 41.007C51.4031 40.9044 50.9164 40.7682 49.3289 39.8805C47.2627 38.7252 46.2608 38.6997 48.0812 39.8488C50.3458 41.2783 52.1171 41.9268 54.4945 42.1967C57.7702 42.5685 58.5744 43.4898 58.5403 46.8326C58.5194 48.9031 58.0687 49.6826 55.6949 51.7547C52.2866 54.7298 51.7362 55.686 52.9833 56.4647C54.602 57.4755 59.2997 57.1803 65.1379 55.7008C69.5141 54.592 71.2362 53.9403 73.2782 52.6207C75.0462 51.4777 76.1391 50.1006 76.5858 48.4529C76.8534 47.4658 76.8238 47.3433 76.1859 46.7945C75.3131 46.044 73.2768 45.7904 70.7787 46.1214C69.0261 46.3537 68.8654 46.3314 68.4107 45.7958C67.5073 44.7316 66.6207 42.5558 66.618 41.3973C66.6153 40.2915 66.6626 40.2302 68.321 39.1826C70.6372 37.7201 72.6442 35.5271 73.6668 33.342C74.3601 31.8606 74.5326 31.1152 74.6158 29.2433C74.7034 27.2752 74.6199 26.699 74.0179 25.1198C73.1618 22.874 71.9767 20.9878 70.0747 18.8443C67.4783 15.9178 66.0775 12.9735 66.0783 10.4446C66.0786 9.92268 66.2588 8.47326 66.4788 7.22342C66.755 5.65366 66.7926 4.86475 66.6 4.67162C66.1643 4.23486 57.7087 4.23164 55.3785 4.66732ZM28.0697 5.89917C20.3091 6.24675 19.3405 6.51563 20.6787 7.95216C21.4764 8.80848 21.7574 9.73062 21.7574 11.494C21.7574 14.2704 20.7628 16.116 17.1717 20.0039C15.2084 22.1294 14.7142 23.0077 14.0714 25.5131C12.9798 29.7689 14.3978 34.1607 18.1212 38.058C19.6537 39.6616 20.5683 40.3551 22.2549 41.1918C25.309 42.7068 25.5408 43.4938 23.9756 47.0387C23.4467 48.2361 23.1327 48.6211 22.5917 48.7341C21.1383 49.0379 17.3834 50.4524 16.2195 51.1344C14.9844 51.8586 14.4246 52.6258 14.9938 52.8154C15.1681 52.8737 15.3108 53.0859 15.3108 53.2871C15.3108 53.4883 16.1872 54.0776 17.2582 54.5971C19.7522 55.8061 27.6768 57.4454 30.9885 57.4374C35.0031 57.4277 38.8641 56.6447 40.577 55.4932C42.7947 54.0021 41.3324 52.488 35.8624 50.6104L33.4479 49.7817L33.2502 48.4414C33.0358 46.9882 33.4906 44.8906 34.254 43.8108C34.5954 43.3278 34.9392 43.2064 35.9669 43.2064C36.6741 43.2064 37.9191 42.9773 38.7336 42.6969C42.8567 41.2783 45.434 38.1842 46.7674 33.0522C47.4964 30.246 47.2635 28.5347 45.5176 23.8665C45.1904 22.9919 45.069 21.8406 45.0784 19.703C45.0967 15.5431 45.653 13.3222 47.1099 11.5948C48.5306 9.90979 47.4218 8.66021 43.7961 7.85975C42.6811 7.61344 41.0734 7.18608 40.2233 6.90941C39.3731 6.63301 38.1039 6.4055 37.4029 6.40362C36.7018 6.40201 35.4632 6.22204 34.6507 6.00393C33.8382 5.78582 33.1129 5.62438 33.039 5.64506C32.9652 5.66575 30.729 5.77991 28.0697 5.89917ZM34.5164 7.47725C35.9937 7.65319 37.7905 7.96773 38.5093 8.17644C39.2278 8.38489 40.2284 8.55572 40.7326 8.55572C41.2365 8.55572 42.6126 8.88101 43.7907 9.27855C46.0097 10.0277 46.4204 10.5023 45.5063 11.2612C45.2251 11.4946 45.1297 11.8628 45.2261 12.345C45.4118 13.2728 44.795 13.896 44.189 13.3929C43.9357 13.1825 43.8476 12.8253 43.9494 12.4199C44.1702 11.5405 43.5745 11.5873 43.2365 12.4758C42.8073 13.6051 42.1747 17.9509 42.1651 19.8373L42.1559 21.5833L41.3872 20.7385C40.8032 20.0971 40.5402 19.4312 40.2937 17.9694C39.8905 15.5796 40.049 14.7021 41.2405 12.7235C42.2381 11.0664 42.2556 10.5198 41.3394 9.60357C40.7616 9.02579 39.7521 8.93392 39.2708 9.41527C39.0202 9.66589 38.8767 9.66589 38.6261 9.41527C38.1507 8.93983 37.2143 9.02283 36.4966 9.60384C35.9344 10.0591 35.7869 10.0742 35.1455 9.74244C34.5263 9.42226 34.265 9.42683 33.2811 9.77387C32.4 10.0847 32.0908 10.1029 31.9361 9.85284C31.6586 9.40346 29.3008 9.37471 28.4189 9.80959C28.0198 10.0065 27.0219 10.1674 26.201 10.1674C24.9439 10.1674 24.6165 10.2732 24.1247 10.8389C23.3798 11.6955 23.1502 11.6837 22.8182 10.7718C22.6701 10.3653 22.25 9.47276 21.8845 8.78807C21.0929 7.30454 21.0913 7.29057 21.6903 7.11194C22.4813 6.8761 31.6646 7.13773 34.5164 7.47725ZM38.6798 10.4124C38.6798 10.5472 38.985 10.6237 39.3578 10.5829C39.7309 10.5418 40.1121 10.6318 40.2053 10.7822C40.2982 10.9329 40.2448 10.9759 40.086 10.8779C39.9273 10.7798 39.5477 11.0167 39.2428 11.4043C38.7671 12.0092 38.5547 12.0839 37.744 11.9319C36.6642 11.7293 36.5764 11.465 37.3368 10.7046C37.8904 10.151 38.6798 9.97909 38.6798 10.4124ZM64.735 10.436C64.735 10.5837 64.6069 10.7046 64.4506 10.7046C64.2942 10.7046 64.2408 10.5837 64.3321 10.436C64.4234 10.2883 64.5513 10.1674 64.6166 10.1674C64.6818 10.1674 64.735 10.2883 64.735 10.436ZM53.8644 10.7175C54.1585 11.1935 53.7835 11.7449 53.2587 11.6077C52.6231 11.4414 52.5952 10.436 53.2264 10.436C53.4816 10.436 53.7685 10.5628 53.8644 10.7175ZM63.7863 12.5142C63.9646 13.979 64.5843 15.6537 65.3233 16.6683C65.8148 17.3433 65.3574 17.5936 64.5228 17.1058C63.0033 16.2184 62.1402 13.2553 62.8542 11.3775C63.2442 10.3516 63.5717 10.7508 63.7863 12.5142ZM34.5365 13.2438C34.3485 14.2454 34.1484 14.3926 33.6509 13.8952C33.2958 13.54 33.4836 12.8546 34.0643 12.3861C34.6332 11.9273 34.7452 12.1307 34.5365 13.2438ZM51.4388 13.3907C51.5301 13.5384 51.4767 13.6593 51.3204 13.6593C51.164 13.6593 51.0359 13.5384 51.0359 13.3907C51.0359 13.243 51.0891 13.1221 51.1544 13.1221C51.2196 13.1221 51.3475 13.243 51.4388 13.3907ZM50.4987 13.9279C50.4987 14.0757 50.3778 14.1965 50.2301 14.1965C50.0823 14.1965 49.9615 14.0757 49.9615 13.9279C49.9615 13.7802 50.0823 13.6593 50.2301 13.6593C50.3778 13.6593 50.4987 13.7802 50.4987 13.9279ZM52.639 13.8608C52.6237 14.2247 51.9231 15.0024 51.6107 15.0024C51.1479 15.0024 51.2438 14.4361 51.7746 14.0332C52.3048 13.6308 52.6516 13.5615 52.639 13.8608ZM23.5125 15.9755C23.364 16.9659 23.0835 17.5002 22.3013 18.2821C21.3564 19.2271 20.1458 19.6493 20.1458 19.0339C20.1458 18.8873 20.5511 18.2367 21.0464 17.5877C21.5417 16.9388 22.1762 15.8539 22.4561 15.177C22.8888 14.131 23.0207 14.0018 23.3355 14.3163C23.6073 14.5882 23.6543 15.0292 23.5125 15.9755ZM19.7238 20.0751C19.915 20.3845 21.253 20.6644 23.1005 20.7815C23.913 20.8328 25.2426 20.9335 26.0552 21.0047C26.8677 21.0762 28.3182 21.189 29.2785 21.2556C30.2388 21.3222 31.0245 21.4087 31.0245 21.4477C31.0245 21.4863 31.3266 21.5511 31.696 21.5914C33.0226 21.7356 35.3367 22.2162 36.0784 22.5014C36.4942 22.6612 37.3403 22.7964 37.9586 22.8015C38.577 22.8068 39.3731 22.972 39.728 23.1686C40.0828 23.3653 40.5964 23.4679 40.869 23.3964C41.1419 23.3252 41.6423 23.4485 41.9816 23.6709C42.5102 24.0172 42.6706 24.0217 43.1079 23.7021C43.9559 23.0819 44.2146 23.2584 45.0225 25.0081C45.7145 26.5059 45.798 26.9775 45.798 29.3837V32.0806L44.1864 35.2932C43.1466 37.366 42.3566 38.6116 41.9604 38.8042C41.6222 38.9683 41.078 39.354 40.7508 39.6616C39.7398 40.6111 37.3201 41.5408 34.6134 42.0194C32.0836 42.4667 31.9455 42.4637 28.5737 41.8891C24.7301 41.234 22.5914 40.3312 19.485 38.0515C18.0138 36.972 17.6332 36.5081 16.8284 34.8121C15.7537 32.5472 15.0408 30.0346 15.0454 28.5285C15.0524 26.2241 16.194 23.5479 18.3232 20.8446C19.1258 19.8253 19.457 19.6434 19.7238 20.0751ZM67.5103 21.8726C67.2997 22.4216 67.6118 25.7755 67.9586 26.6877C68.1063 27.0758 68.2269 28.3346 68.2269 29.4847C68.2269 31.1934 68.1055 31.8047 67.563 32.8249C66.8616 34.1443 67.0813 34.4393 68.1383 33.5977C70.4169 31.7832 70.7304 25.3285 68.6855 22.3239C68.0244 21.3526 67.7504 21.2473 67.5103 21.8726ZM41.223 27.2123L41.4121 29.4834L39.8977 32.3981C39.065 34.0011 38.0876 35.6571 37.7257 36.078C36.2924 37.7461 37.2621 38.4136 39.1416 37.0523C40.4516 36.1033 41.1237 35.1887 42.1968 32.8961C42.8629 31.4725 43.0141 30.8039 43.0093 29.3042C43.0034 27.3748 42.6921 26.2015 41.977 25.4115C41.1742 24.5243 41.028 24.873 41.223 27.2123ZM11.8188 34.7686C11.8188 35.9505 17.1349 40.2904 18.5148 40.2348C18.7885 40.2238 18.7296 40.1341 18.3469 39.9801C18.0224 39.8493 16.5179 38.5272 15.0035 37.0424C13.4891 35.5572 12.153 34.3423 12.0345 34.3423C11.9158 34.3423 11.8188 34.5341 11.8188 34.7686ZM11.013 38.1845C11.013 39.2981 14.6349 41.2767 17.7573 41.869C19.4823 42.1959 19.6085 42.1956 19.6085 41.8634C19.6085 41.7156 19.3668 41.5948 19.0713 41.5948C18.7758 41.5948 18.5341 41.4897 18.5341 41.3613C18.5341 41.2329 18.1148 41.0597 17.602 40.9767C16.3323 40.7707 14.0096 39.578 13.0147 38.6215C12.1748 37.8135 11.013 37.56 11.013 38.1845ZM65.0101 41.3933C65.0259 42.8997 67.943 48.3027 68.7429 48.3076C68.953 48.3089 69.3452 48.1107 69.6146 47.8668C69.9412 47.5711 70.7685 47.3811 72.1006 47.2955C76.0486 47.0422 76.4628 47.761 73.8006 50.2443C71.7312 52.1745 69.62 53.2046 65.5736 54.2584C61.9552 55.2009 55.948 55.6465 55.2026 55.0279C54.9791 54.8426 54.7964 54.6043 54.7964 54.4985C54.7964 54.3929 55.7887 53.5372 57.0015 52.5973C58.2142 51.6572 60.0977 50.0412 61.1872 49.0062C62.9394 47.3422 63.1508 47.0371 63.0173 46.3688C62.9093 45.8288 63.0181 45.4606 63.3976 45.081C64.1161 44.3625 64.0697 44.1355 63.1234 43.7436C62.6801 43.5602 62.3175 43.3302 62.3175 43.2327C62.3175 43.1352 62.6801 42.9187 63.1234 42.7514C63.5843 42.5773 63.9292 42.2515 63.9292 41.9896C63.9292 41.483 63.8843 41.4903 61.4086 42.392C60.5393 42.7087 59.643 42.8967 59.4163 42.8097C58.6803 42.5271 59.5049 42.0651 61.8426 41.45C64.8169 40.6675 65.0023 40.6643 65.0101 41.3933ZM29.2715 42.9351C30.5232 43.0845 31.7011 43.2064 31.8888 43.2064C32.137 43.2064 32.18 43.4815 32.046 44.2137C31.7656 45.7461 31.8918 47.981 32.3691 49.9281C32.9606 52.3421 33.1038 52.539 33.94 52.0915C34.9322 51.5605 36.7356 51.936 38.5028 53.0416C39.339 53.5643 40.0229 54.1106 40.0229 54.2551C40.0229 54.3999 39.4489 54.7827 38.747 55.1056C37.6315 55.6194 36.9116 55.7046 33.0162 55.7841C29.7722 55.8502 27.8766 55.7567 26.0428 55.4403C23.2079 54.9511 19.1369 53.6639 17.7882 52.8304C16.9187 52.2929 16.9082 52.2656 17.4304 51.8997C18.374 51.2387 23.7172 49.6337 25.2493 49.551C26.0619 49.5069 27.1839 49.3049 27.7429 49.1021C28.6467 48.7736 28.7415 48.6541 28.6019 48.0183C28.4915 47.5149 28.5683 47.2565 28.8616 47.1437C29.3234 46.9667 29.4324 45.7507 29.0099 45.4896C28.3112 45.0577 28.7996 44.5602 30.0902 44.3891C32.0293 44.1318 31.923 43.8838 29.8544 43.8401C28.8729 43.8191 27.6247 43.6096 27.0807 43.374C25.9047 42.865 25.4417 42.3109 26.3684 42.5215C26.7133 42.5999 28.0195 42.786 29.2715 42.9351ZM27.229 44.5758C27.5349 46.1063 26.5365 48.31 25.537 48.31C25.0909 48.31 25.1064 48.1424 25.7514 46.0268C26.4798 43.6365 26.9488 43.1758 27.229 44.5758ZM60.534 44.6166C61.5592 45.9704 61.5625 46.8149 60.5471 48.0215C60.1643 48.4765 59.7539 48.7887 59.6352 48.7153C59.322 48.5217 59.301 43.7436 59.6134 43.7436C59.7561 43.7436 60.1703 44.1366 60.534 44.6166ZM64.4207 48.6858C63.2201 49.1145 59.2016 51.7614 58.3214 52.7031C57.0313 54.0838 58.3684 54.9063 61.4615 54.635C63.6955 54.4389 66.0528 53.7644 67.3983 52.9363C68.2914 52.3867 69.2957 50.7275 68.7354 50.7275C68.5861 50.7275 67.4477 51.2193 66.2059 51.8205C64.663 52.5672 63.4562 52.9567 62.3941 53.0502L60.8402 53.1872L61.5117 52.6354C61.881 52.3322 62.9265 51.7571 63.8352 51.3577C64.7471 50.9566 65.4347 50.4949 65.3703 50.3267C65.3058 50.1591 65.4992 49.7994 65.8001 49.5273C66.9887 48.4516 66.2827 48.0207 64.4207 48.6858ZM25.518 50.4363C22.181 51.3055 21.4888 51.6367 21.4888 52.3636C21.4888 54.0255 31.021 55.5469 32.454 54.1139C32.6842 53.8834 32.7903 53.6126 32.6896 53.5119C32.5888 53.4112 30.6621 53.2377 28.4079 53.1264C23.7126 52.8952 24.1749 52.9519 24.1749 52.6078C24.1749 52.4536 25.0052 52.3378 26.1223 52.3362C28.9693 52.3319 30.0843 52.1012 30.0843 51.5164C30.0843 51.2502 30.3261 50.9555 30.6215 50.8618C31.3006 50.6464 31.3073 50.2886 30.6393 49.9311C29.8493 49.5085 28.6121 49.6305 25.518 50.4363ZM82.9409 65.962L81.4036 66.0646L80.8393 67.9988C78.1722 77.1372 78.0138 77.5885 77.4698 77.5885C77.0989 77.5885 76.7548 76.5197 75.4816 71.4105C75.0214 69.5638 74.5258 67.5997 74.3803 67.0455L74.1157 66.0383H71.3369C68.6822 66.0383 68.5509 66.0654 68.3962 66.6426C68.3073 66.9752 68.2326 71.9359 68.2307 77.6664L68.2269 88.086L70.443 88.0079L72.659 87.93L72.7933 82.8927C72.8704 80.0049 73.0364 77.8496 73.1825 77.8418C73.3225 77.8343 74.055 80.1011 74.8103 82.879L76.1832 87.93L77.2098 88.0154C77.7744 88.0624 78.3441 87.9931 78.4758 87.8615C78.6074 87.7299 79.2464 85.6363 79.8956 83.2097C80.5449 80.7828 81.2317 78.4346 81.4219 77.9914C81.7555 77.2146 81.7743 77.2578 81.9462 79.2001C82.0443 80.3082 82.1401 82.7606 82.1595 84.65L82.1947 88.0852L84.545 88.0076L86.8953 87.93V76.917V65.904L85.6866 65.8817C85.0218 65.8693 83.7862 65.9056 82.9409 65.962ZM0.200652 66.1957C0.0902534 66.3061 0 71.1929 0 77.055V87.7137L3.24964 87.8771C6.99837 88.0656 8.65381 87.8212 10.5233 86.8037C12.063 85.9656 12.8054 85.0387 13.3284 83.3016C14.2221 80.3321 13.3846 77.7505 11.0326 76.2258L10.381 75.803L10.9545 75.2296C13.4034 72.7806 13.1176 68.3779 10.4086 66.8264C9.34817 66.219 8.95197 66.1664 4.83418 66.0839C2.396 66.035 0.311051 66.0855 0.200652 66.1957ZM14.2363 68.993V71.9477H15.9509C17.4226 71.9477 17.685 71.8738 17.8021 71.426C17.9861 70.7226 17.815 70.6046 16.609 70.6046H15.5794V68.3214C15.5794 66.0651 15.5716 66.0383 14.9079 66.0383H14.2363V68.993ZM24.6487 66.374C24.2292 66.698 24.079 67.2596 24.144 68.2599C24.1738 68.7193 24.3549 68.8288 26.2566 69.5383C26.8118 69.7453 27.1296 70.0459 27.1296 70.3634C27.1296 70.9984 25.9757 71.3143 25.1048 70.9176C24.2004 70.5052 23.9092 71.083 24.6992 71.7226C25.7302 72.5574 27.3037 72.1881 27.9626 70.9568C28.4802 69.9898 27.8524 69.0402 26.3262 68.4813C25.6627 68.2382 25.0817 67.8412 25.035 67.5989C24.9085 66.9416 25.9268 66.7407 26.9067 67.2295C27.8347 67.6926 28.0872 67.6268 27.8412 66.9859C27.5194 66.1471 25.4551 65.7514 24.6487 66.374ZM19.6684 66.4871C19.1777 66.6845 18.2655 68.5774 18.2655 69.3986C18.2655 71.3143 19.9064 72.5341 21.7434 71.9837C22.8219 71.6605 23.1966 71.1948 22.8413 70.6197C22.6828 70.3634 22.4964 70.3529 22.0779 70.577C21.1364 71.0809 20.1538 70.9417 19.9037 70.2689C19.5806 69.3997 19.8274 68.993 20.6781 68.993C22.2788 68.993 23.1005 68.683 23.1005 68.0792C23.1005 66.9599 22.3664 66.305 21.1377 66.3281C20.5183 66.3396 19.857 66.4114 19.6684 66.4871ZM22.0008 67.4853C22.253 67.7891 22.1321 67.8788 21.3459 67.9706C20.3252 68.0896 19.8266 67.7485 20.4471 67.3555C20.9948 67.0085 21.6505 67.0633 22.0008 67.4853ZM7.58823 70.3701C8.61432 71.5982 7.96966 73.7181 6.38674 74.3206C4.79496 74.9263 4.56637 74.6827 4.56637 72.381C4.56637 71.2805 4.63863 70.1912 4.72727 69.9608C4.96203 69.3486 6.97527 69.6368 7.58823 70.3701ZM46.628 72.5521C46.2133 75.8581 45.0943 87.0462 45.1713 87.1164C45.2205 87.1612 45.9952 87.2816 46.8929 87.3836L48.5249 87.569L48.8403 84.6803C49.0178 83.0547 49.3345 81.5191 49.5647 81.1677C50.0235 80.4675 50.944 80.3546 51.6983 80.9064C52.2143 81.2835 52.2116 82.2137 51.6819 86.3551L51.5054 87.735L53.1673 87.9281C54.0814 88.0339 54.9009 88.0492 54.9882 87.9619C55.3245 87.6256 55.3941 81.208 55.0745 80.0307C54.4816 77.8477 52.4273 76.6073 50.5113 77.2753C50.0678 77.4297 49.659 77.473 49.6029 77.3709C49.547 77.2691 49.6429 76.0088 49.8159 74.5707C50.0289 72.8013 50.0426 71.8676 49.8581 71.6831C49.7082 71.5332 48.9523 71.4105 48.1782 71.4105H46.7712L46.628 72.5521ZM36.3518 72.4648C34.2588 72.5496 32.4787 72.6866 32.3962 72.7694C32.3138 72.8518 32.3208 73.547 32.4116 74.3139L32.5768 75.7082H34.5287H36.4807L36.6336 78.1929C36.7174 79.5593 36.8589 82.2489 36.9478 84.1694C37.037 86.09 37.1909 87.7253 37.2903 87.8032C37.3897 87.8814 38.4137 87.9018 39.5657 87.8486L41.6606 87.7524L41.4489 83.0061C41.3324 80.3957 41.2359 77.6556 41.2343 76.917L41.2316 75.5739L43.2462 75.4396C45.4727 75.2911 45.2941 75.5027 45.1746 73.1564L45.1265 72.2163L42.6418 72.2633C41.2752 72.2894 38.4448 72.3799 36.3518 72.4648ZM25.2493 74.0528C24.5888 74.2529 24.5784 74.2999 24.6084 76.9296C24.6251 78.4 24.6554 81.5132 24.6756 83.8476L24.7121 88.0925L26.1223 88.0111L27.5325 87.93L27.6668 85.3782L27.8011 82.8264L29.3696 85.311L30.9382 87.7957H32.9297H34.9212L33.9128 86.1735C33.3584 85.2812 32.4424 83.9374 31.8776 83.1871L30.8504 81.8229L31.5724 81.0691C32.5816 80.0159 32.6966 78.4322 31.9036 76.5141C31.4156 75.3332 31.0865 74.9357 30.2635 74.5339C29.1547 73.9923 26.341 73.7224 25.2493 74.0528ZM60.303 75.6822C58.9661 76.3035 57.373 77.9412 56.8242 79.2587C56.2644 80.6023 56.3066 82.8455 56.9169 84.189C58.0453 86.6737 60.6078 88.3659 62.6294 87.9617C64.0275 87.6821 65.4971 86.4615 66.2234 84.9769C67.9551 81.4371 66.4324 76.2798 63.4073 75.4393C62.0704 75.0681 61.534 75.11 60.303 75.6822ZM29.3064 77.0792C30.1321 77.9049 29.7714 79.6079 28.7413 79.7468C27.4973 79.9144 27.3982 79.7949 27.3982 78.1257C27.3982 76.5858 27.428 76.5141 28.0697 76.5141C28.4391 76.5141 28.9956 76.7684 29.3064 77.0792ZM17.3079 77.4308C16.3393 77.8528 14.9516 79.9063 14.5125 81.5688C14.0934 83.1538 14.545 85.2471 15.5759 86.4977C16.8942 88.0971 19.3679 88.4699 21.8246 87.4398C22.7577 87.0484 22.8319 86.9356 22.8319 85.9079V84.7983L21.9589 85.0212C21.4789 85.1437 20.2051 85.2439 19.1283 85.2439C16.8515 85.2439 16.613 85.0446 16.718 83.2293L16.7881 82.0206L19.9091 82.1191C21.708 82.1758 23.097 82.1095 23.1878 81.9623C23.6079 81.2827 23.617 79.9383 23.2074 79.1287C22.4276 77.5882 21.556 77.0706 19.7428 77.0714C18.8564 77.072 17.7608 77.2337 17.3079 77.4308ZM7.48213 78.7771C9.4223 79.7803 9.20231 83.0475 7.13643 83.9105C6.61882 84.1267 5.82884 84.3037 5.3808 84.3037H4.56637V81.349V78.3943H5.65424C6.25244 78.3943 7.07492 78.5665 7.48213 78.7771ZM63.0734 80.0194C63.7815 81.3805 63.7237 83.2234 62.9461 84.0827C62.1365 84.9774 60.6978 84.455 60.0163 83.0192C59.6467 82.2403 59.6223 81.9013 59.8756 81.0563C60.1756 80.0543 61.639 78.5899 62.1832 78.7467C62.331 78.7892 62.7315 79.3619 63.0734 80.0194ZM21.3282 79.5125C21.5519 79.8322 21.6913 80.1645 21.6381 80.2512C21.4883 80.4951 18.2655 80.2563 18.2655 80.0014C18.2655 79.4849 19.1704 78.9315 20.0155 78.9315C20.6395 78.9315 21.0477 79.1123 21.3282 79.5125Z" fill="black"/>
</svg>
