<svg width="23" height="23" viewBox="0 0 23 23" fill="none" xmlns="http://www.w3.org/2000/svg">
<path d="M22.4688 11.5C22.4688 9.33059 21.8255 7.2099 20.6202 5.40609C19.4149 3.60229 17.7018 2.1964 15.6976 1.3662C13.6933 0.536003 11.4878 0.318785 9.36011 0.742016C7.23238 1.16525 5.27794 2.20992 3.74393 3.74393C2.20992 5.27794 1.16525 7.23238 0.742016 9.36011C0.318785 11.4878 0.536003 13.6933 1.3662 15.6976C2.1964 17.7018 3.60229 19.4149 5.40609 20.6202C7.2099 21.8255 9.33059 22.4688 11.5 22.4688C14.4082 22.466 17.1966 21.3094 19.253 19.253C21.3094 17.1966 22.466 14.4082 22.4688 11.5ZM12.3438 20.7391V14.0313H14.875C15.0988 14.0313 15.3134 13.9424 15.4716 13.7841C15.6299 13.6259 15.7188 13.4113 15.7188 13.1875C15.7188 12.9637 15.6299 12.7491 15.4716 12.5909C15.3134 12.4326 15.0988 12.3438 14.875 12.3438H12.3438V9.81251C12.3438 9.36495 12.5215 8.93573 12.838 8.61926C13.1545 8.3028 13.5837 8.12501 14.0313 8.12501H15.7188C15.9425 8.12501 16.1571 8.03611 16.3154 7.87788C16.4736 7.71964 16.5625 7.50503 16.5625 7.28126C16.5625 7.05748 16.4736 6.84287 16.3154 6.68463C16.1571 6.5264 15.9425 6.43751 15.7188 6.43751H14.0313C13.137 6.44029 12.2802 6.79676 11.6478 7.42909C11.0155 8.06143 10.659 8.91826 10.6563 9.81251V12.3438H8.12501C7.90123 12.3438 7.68662 12.4326 7.52838 12.5909C7.37015 12.7491 7.28126 12.9637 7.28126 13.1875C7.28126 13.4113 7.37015 13.6259 7.52838 13.7841C7.68662 13.9424 7.90123 14.0313 8.12501 14.0313H10.6563V20.7391C8.27772 20.5219 6.07444 19.3962 4.50472 17.5961C2.93501 15.7959 2.11969 13.4599 2.22837 11.0739C2.33705 8.68798 3.36135 6.43577 5.08822 4.78577C6.81509 3.13576 9.11158 2.215 11.5 2.215C13.8884 2.215 16.1849 3.13576 17.9118 4.78577C19.6387 6.43577 20.663 8.68798 20.7716 11.0739C20.8803 13.4599 20.065 15.7959 18.4953 17.5961C16.9256 19.3962 14.7223 20.5219 12.3438 20.7391Z" fill="white"/>
</svg>
