<svg width="29" height="28" viewBox="0 0 29 28" fill="none" xmlns="http://www.w3.org/2000/svg">
<path d="M28.1266 14.0032C28.1266 11.3096 27.3278 8.67661 25.8314 6.43702C24.335 4.19744 22.208 2.4519 19.7195 1.42113C17.231 0.390361 14.4928 0.120666 11.851 0.646146C9.20922 1.17163 6.7826 2.46868 4.87799 4.37329C2.97338 6.2779 1.67633 8.70452 1.15085 11.3463C0.625365 13.9881 0.895061 16.7263 1.92583 19.2148C2.9566 21.7033 4.70214 23.8303 6.94172 25.3267C9.18131 26.8231 11.8143 27.6219 14.5079 27.6219C18.1187 27.6184 21.5807 26.1825 24.1339 23.6292C26.6872 21.076 28.1231 17.614 28.1266 14.0032V14.0032ZM15.5555 25.4743V17.1459H18.6982C18.9761 17.1459 19.2425 17.0356 19.439 16.8391C19.6355 16.6426 19.7458 16.3762 19.7458 16.0984C19.7458 15.8205 19.6355 15.5541 19.439 15.3576C19.2425 15.1611 18.9761 15.0508 18.6982 15.0508H15.5555V11.908C15.5555 11.3523 15.7762 10.8194 16.1691 10.4265C16.562 10.0335 17.095 9.8128 17.6506 9.8128H19.7458C20.0237 9.8128 20.2901 9.70243 20.4866 9.50596C20.683 9.3095 20.7934 9.04304 20.7934 8.7652C20.7934 8.48737 20.683 8.22091 20.4866 8.02445C20.2901 7.82798 20.0237 7.71761 19.7458 7.71761H17.6506C16.5404 7.72107 15.4765 8.16366 14.6914 8.94876C13.9063 9.73386 13.4637 10.7977 13.4603 11.908V15.0508H10.3175C10.0397 15.0508 9.7732 15.1611 9.57674 15.3576C9.38028 15.5541 9.2699 15.8205 9.2699 16.0984C9.2699 16.3762 9.38028 16.6426 9.57674 16.8391C9.7732 17.0356 10.0397 17.1459 10.3175 17.1459H13.4603V25.4743C10.5071 25.2047 7.77154 23.807 5.82259 21.572C3.87364 19.3369 2.86135 16.4365 2.99629 13.4742C3.13122 10.5118 4.40299 7.71546 6.54705 5.66683C8.69111 3.6182 11.5424 2.47499 14.5079 2.47499C17.4733 2.47499 20.3246 3.6182 22.4687 5.66683C24.6127 7.71546 25.8845 10.5118 26.0194 13.4742C26.1544 16.4365 25.1421 19.3369 23.1931 21.572C21.2442 23.807 18.5086 25.2047 15.5555 25.4743V25.4743Z" fill="#262829"/>
</svg>
