<svg width="39" height="51" viewBox="0 0 39 51" fill="none" xmlns="http://www.w3.org/2000/svg">
<path d="M8.33182 0.846972L8.33186 0.846995C8.53567 0.960128 8.7055 1.12574 8.82371 1.32664C8.94192 1.52754 9.00422 1.75642 9.00415 1.98953V1.98973V17.8751V18.4751H9.60415H12.7863C13.1328 18.4751 13.465 18.6128 13.71 18.8577C13.9549 19.1027 14.0926 19.435 14.0926 19.7814C14.0926 20.1278 13.9549 20.4601 13.71 20.7051C13.465 20.95 13.1328 21.0876 12.7863 21.0876H2.61456C2.26812 21.0876 1.93587 20.95 1.6909 20.7051C1.44593 20.4601 1.30831 20.1278 1.30831 19.7814C1.30831 19.435 1.44593 19.1027 1.6909 18.8577C1.93587 18.6128 2.26812 18.4751 2.61456 18.4751H5.79165H6.39165V17.8751V5.42861V4.34619L5.4737 4.91977L3.30566 6.27448L3.3056 6.27451C3.01182 6.45813 2.65714 6.51752 2.31957 6.43962C1.982 6.36172 1.6892 6.15291 1.50559 5.85913C1.32198 5.56535 1.26259 5.21066 1.34049 4.87309C1.41839 4.53552 1.6272 4.24273 1.92098 4.05911L7.00431 0.88203L7.00467 0.881805C7.20258 0.757916 7.43008 0.68934 7.66349 0.683214C7.8969 0.677087 8.12768 0.733635 8.33182 0.846972ZM22.9555 13.402L36.253 13.402C36.2532 13.402 36.2533 13.402 36.2535 13.402C36.5115 13.4023 36.7637 13.479 36.9781 13.6225L37.3117 13.1238L36.9781 13.6225C37.1927 13.766 37.3599 13.97 37.4587 14.2085C37.5575 14.447 37.5834 14.7095 37.5331 14.9627C37.4827 15.216 37.3585 15.4486 37.1761 15.6313L30.1206 22.6893L29.306 23.5043L30.4407 23.7044C31.795 23.9433 33.0203 24.3236 34.0567 24.8716L34.0573 24.8719C36.1903 25.9962 37.5598 27.859 37.5598 30.4869C37.5598 32.7284 36.4728 34.5511 34.8235 35.7746L34.8228 35.7751C33.1981 36.9836 31.0425 37.6136 28.7734 37.6136C25.4683 37.6136 23.2789 36.3434 22.3012 35.7762L22.2966 35.7735C22.2965 35.7734 22.2963 35.7733 22.2962 35.7733C21.9968 35.5988 21.7789 35.3126 21.6904 34.9776C21.6019 34.6424 21.6501 34.2858 21.8245 33.9862C21.9989 33.6865 22.2852 33.4685 22.6204 33.3799C22.9556 33.2914 23.3123 33.3396 23.6119 33.5141C24.4776 34.0189 26.1726 35.0011 28.7734 35.0011C30.5891 35.0011 32.1693 34.4948 33.2663 33.6807L33.2666 33.6804C34.3412 32.8817 34.9473 31.7962 34.9473 30.4869C34.9473 29.7597 34.7865 29.1099 34.4191 28.5413C34.0548 27.9774 33.5173 27.5399 32.8406 27.1833C31.347 26.3949 29.1053 25.988 26.2805 25.988C26.0224 25.9878 25.77 25.911 25.5554 25.7675C25.3408 25.6239 25.1736 25.42 25.0748 25.1815C24.976 24.9429 24.9502 24.6804 25.0005 24.4272C25.0508 24.174 25.175 23.9413 25.3575 23.7586L32.0749 17.0387L33.0987 16.0145H31.6506H22.9555C22.6091 16.0145 22.2768 15.8769 22.0319 15.6319C21.7869 15.3869 21.6493 15.0547 21.6493 14.7082C21.6493 14.3618 21.7869 14.0295 22.0319 13.7846C22.2768 13.5396 22.6091 13.402 22.9555 13.402ZM6.68998 41.3972L6.73219 41.3702C8.02883 40.5422 9.08049 39.8484 9.79723 39.0956C10.549 38.306 10.9489 37.4367 10.9489 36.2895C10.9489 35.2423 10.6007 34.5066 10.1181 34.0106L10.1122 34.0046L10.1061 33.9987C9.55833 33.4665 8.84355 33.1398 8.08266 33.0738L8.08083 33.0737C7.20089 32.9742 6.312 33.1583 5.54372 33.5993C4.77315 34.0416 4.16459 34.719 3.80709 35.5322C3.66097 35.8382 3.40155 36.0754 3.08358 36.1936C2.76333 36.3127 2.40917 36.3015 2.09704 36.1626C1.78491 36.0236 1.53966 35.7679 1.41387 35.4502C1.28868 35.134 1.29173 34.7816 1.42223 34.4677C2.00618 33.1476 2.99681 32.0485 4.24959 31.3311C5.50404 30.6127 6.95549 30.3146 8.39153 30.4806L8.39152 30.4806L8.39915 30.4814C9.75787 30.6208 11.0265 31.2258 11.9901 32.1938C12.9753 33.2075 13.5588 34.6086 13.5588 36.2921C13.5588 40.0952 10.6847 41.9575 8.44927 43.3747C8.30796 43.4643 8.16083 43.5559 8.00992 43.6499C7.45533 43.9954 6.84973 44.3726 6.29472 44.7949C5.58167 45.3375 4.90056 45.9904 4.44364 46.8303L3.96121 47.717H4.97069H12.7812C13.1277 47.717 13.4599 47.8546 13.7049 48.0996C13.9499 48.3446 14.0875 48.6768 14.0875 49.0233C14.0875 49.3697 13.9499 49.702 13.7049 49.9469C13.4599 50.1919 13.1277 50.3295 12.7812 50.3295H2.61456C2.26812 50.3295 1.93587 50.1919 1.6909 49.9469C1.44593 49.702 1.30831 49.3697 1.30831 49.0233C1.30831 44.8421 4.3588 42.8894 6.68998 41.3972Z" fill="#1F3D87" stroke="#FBF8EA" stroke-width="1.2"/>
</svg>
