<svg width="97" height="21" viewBox="0 0 97 21" fill="none" xmlns="http://www.w3.org/2000/svg">
<path d="M10.9943 3.30912C9.38725 3.31213 7.82725 3.85151 6.56158 4.84174C5.29591 5.83198 4.39704 7.21641 4.00747 8.77549C3.6179 10.3346 3.75992 11.9791 4.41106 13.4483C5.06219 14.9175 6.18515 16.1272 7.60187 16.8858C9.01859 17.6443 10.648 17.9082 12.2317 17.6356C13.8154 17.3631 15.2628 16.5696 16.3444 15.381C17.426 14.1925 18.0799 12.6769 18.2023 11.0745C18.3248 9.47217 17.9088 7.8748 17.0204 6.53569L18.3379 5.21823C18.4678 5.08851 18.5708 4.93447 18.641 4.76492C18.7113 4.59538 18.7475 4.41366 18.7475 4.23013C18.7475 4.0466 18.7113 3.86486 18.641 3.69532C18.5708 3.52578 18.4678 3.37176 18.3379 3.24204L18.283 3.18715C18.1533 3.05731 17.9993 2.95431 17.8297 2.88404C17.6602 2.81377 17.4784 2.77759 17.2949 2.77759C17.1114 2.77759 16.9296 2.81377 16.7601 2.88404C16.5906 2.95431 16.4365 3.05731 16.3068 3.18715L14.9894 4.50459C13.8053 3.71958 12.4149 3.30354 10.9943 3.30912ZM16.1055 5.4195L15.8921 5.21212L17.1119 3.99225C17.1599 3.94494 17.2245 3.91843 17.2919 3.91843C17.3592 3.91843 17.4238 3.94494 17.4718 3.99225L17.5328 4.04714C17.5805 4.09611 17.6072 4.16178 17.6072 4.23013C17.6072 4.29849 17.5805 4.36414 17.5328 4.41311L16.3129 5.63298L16.1055 5.4195ZM14.965 5.91965L15.5749 6.56009C16.3526 7.45878 16.8508 8.56508 17.0083 9.74307C17.1658 10.9211 16.9757 12.1194 16.4614 13.1908C15.9471 14.2622 15.131 15.1601 14.1134 15.774C13.0957 16.3879 11.9209 16.6911 10.7333 16.6464C9.54567 16.6017 8.39699 16.211 7.42839 15.5223C6.45979 14.8337 5.71347 13.877 5.28118 12.7699C4.84888 11.6629 4.74947 10.4536 4.99508 9.29083C5.2407 8.12802 5.82066 7.06229 6.66373 6.22462C7.75143 5.14316 9.20665 4.51121 10.7394 4.45469C12.2722 4.39817 13.7701 4.92123 14.9345 5.91965H14.965Z" fill="white"/>
<path d="M20.7655 6.54171C20.7376 6.4714 20.6956 6.40752 20.6421 6.35403C20.5886 6.30054 20.5248 6.25855 20.4545 6.23064C20.3096 6.17293 20.148 6.17293 20.0031 6.23064C19.8685 6.2921 19.7629 6.40322 19.7083 6.54076C19.6538 6.67831 19.6545 6.83163 19.7104 6.96866C20.5035 8.92627 20.6087 11.0952 20.0086 13.1203C19.4085 15.1455 18.1387 16.9069 16.407 18.1164C14.6754 19.3258 12.5845 19.9116 10.4765 19.7779C8.36857 19.6442 6.36845 18.7988 4.80352 17.3803C3.69009 16.3803 2.83508 15.1258 2.31147 13.7239C1.78787 12.3219 1.61121 10.8141 1.79654 9.32911C1.96333 7.88086 2.47582 6.49393 3.29086 5.28523C4.51629 3.44874 6.35205 2.10513 8.47308 1.49226C10.5941 0.879397 12.8636 1.03683 14.8796 1.93668C15.0158 1.98683 15.1659 1.9835 15.2997 1.92734C15.4335 1.87118 15.541 1.76638 15.6006 1.63408C15.6602 1.50178 15.6674 1.35181 15.6207 1.21441C15.5741 1.07702 15.4771 0.962409 15.3493 0.893698C13.4121 0.0404042 11.2627 -0.209409 9.18133 0.176826C7.10001 0.563061 5.18334 1.56742 3.68122 3.05896C2.60391 4.12272 1.77262 5.4095 1.24576 6.82887C0.718899 8.24824 0.50924 9.76576 0.631544 11.2748C0.739756 12.7872 1.17509 14.258 1.90744 15.5857C2.6398 16.9134 3.65172 18.0662 4.87325 18.9644C6.09478 19.8627 7.49679 20.485 8.98239 20.7883C10.468 21.0916 12.0018 21.0687 13.4777 20.7212C14.9535 20.3737 16.3363 19.7099 17.5305 18.7756C18.7247 17.8413 19.7018 16.6588 20.3943 15.3099C21.0867 13.961 21.4779 12.4778 21.541 10.9629C21.604 9.44796 21.3374 7.93739 20.7594 6.53561L20.7655 6.54171Z" fill="white"/>
<path d="M11.1103 10.0732C11.0374 10.0732 10.9652 10.0875 10.8979 10.1154C10.8305 10.1433 10.7694 10.1842 10.7178 10.2358C10.6663 10.2873 10.6254 10.3485 10.5975 10.4158C10.5696 10.4832 10.5552 10.5553 10.5552 10.6282C10.5552 10.7011 10.5696 10.7733 10.5975 10.8406C10.6254 10.908 10.6663 10.9692 10.7178 11.0207C10.7694 11.0722 10.8305 11.1131 10.8979 11.141C10.9652 11.1689 11.0374 11.1833 11.1103 11.1833H13.8916C13.8399 11.8871 13.5149 12.5429 12.986 13.0102C12.4571 13.4775 11.7664 13.7194 11.0615 13.684C9.29879 13.684 8.0728 12.3788 8.0728 10.5063C8.0728 8.63375 9.29269 7.31628 11.0615 7.31628C11.5682 7.29529 12.0699 7.4241 12.5038 7.68662C12.9377 7.94914 13.2847 8.33373 13.5012 8.79232V8.85942H15.0444L14.9895 8.70693C14.6819 7.91339 14.1336 7.23607 13.4214 6.77006C12.7093 6.30405 11.8691 6.07274 11.0188 6.1086C9.88162 6.15097 8.80513 6.63252 8.01558 7.45203C7.22603 8.27154 6.78491 9.36523 6.78491 10.5032C6.78491 11.6412 7.22603 12.7348 8.01558 13.5544C8.80513 14.3739 9.88162 14.8554 11.0188 14.8978C12.0846 14.9117 13.1157 14.5189 13.9021 13.7993C14.6885 13.0798 15.1712 12.0876 15.2518 11.0247V10.0732H11.1103Z" fill="white"/>
<path d="M46.6513 10.7319L41.1619 13.5803L41.3082 13.7388C41.5371 14.015 41.8216 14.2398 42.1432 14.3985C42.4648 14.5572 42.8162 14.6462 43.1746 14.6599C43.5411 14.6484 43.9 14.5527 44.2237 14.3803C44.5473 14.2079 44.827 13.9634 45.041 13.6657L45.2179 13.4339L46.328 14.117C46.2551 14.245 46.167 14.3638 46.0657 14.4708C45.6921 14.9336 45.216 15.3032 44.675 15.5504C44.1397 15.7896 43.5597 15.9123 42.9733 15.9102C42.4597 15.9245 41.9486 15.8316 41.4728 15.6373C40.9971 15.443 40.5671 15.1516 40.2103 14.7818C39.848 14.4225 39.5624 13.9935 39.3705 13.5207C39.1787 13.0479 39.0847 12.5412 39.0942 12.031C39.0849 11.3954 39.2314 10.7671 39.5211 10.2012C39.7919 9.6726 40.1902 9.2198 40.68 8.88375C41.0791 8.59941 41.528 8.39252 42.0035 8.27382C42.3362 8.20044 42.6754 8.15958 43.016 8.15182C43.7398 8.14418 44.4507 8.34307 45.0654 8.72516C45.6875 9.11631 46.1848 9.67711 46.4988 10.3415L46.6513 10.7319ZM44.8886 10.3293C44.7799 10.1172 44.6293 9.92939 44.4458 9.77735C44.2623 9.6253 44.0498 9.51219 43.8212 9.44489C43.5516 9.36765 43.2721 9.33066 42.9917 9.3351C42.6616 9.33051 42.3345 9.39799 42.0332 9.53284C41.7319 9.66768 41.4637 9.86663 41.2472 10.1158C40.8009 10.5757 40.5478 11.189 40.5397 11.8297C40.5385 12.0595 40.5735 12.2879 40.6433 12.5068L44.8886 10.3293Z" fill="white"/>
<path d="M47.8284 8.92652L49.341 8.2251V9.44497C49.6073 9.07125 49.9641 8.77117 50.3779 8.57277C50.8086 8.36165 51.2829 8.25507 51.7624 8.26169C51.86 8.26169 52.0796 8.26169 52.1833 8.26169C52.6242 8.29504 53.0537 8.41746 53.4459 8.62155C53.8204 8.85373 54.1232 9.18543 54.3203 9.5796C54.5173 9.97378 54.6011 10.4149 54.5621 10.8539V15.7761H52.9884V11.287C53.0129 10.8913 52.9103 10.498 52.6956 10.1647C52.5222 9.91362 52.2573 9.74062 51.9577 9.68285C51.7353 9.63159 51.5086 9.60097 51.2806 9.59137C50.9414 9.59474 50.609 9.68727 50.3169 9.85972C50.03 10.0094 49.788 10.2325 49.6155 10.5063C49.4527 10.8051 49.3726 11.142 49.3837 11.4822V15.7517H47.8223L47.8284 8.92652Z" fill="white"/>
<path d="M61.2164 9.10942V8.3653H62.7291V15.6052C62.7523 16.0147 62.6851 16.4242 62.5322 16.8047C62.3794 17.1853 62.1446 17.5275 61.8446 17.8071C61.0933 18.3901 60.1519 18.6727 59.2036 18.6C58.8224 18.5928 58.4417 18.5663 58.0631 18.5207C57.434 18.4231 56.833 18.1923 56.3003 17.8437L55.9466 17.6241L56.6175 16.5018L56.9713 16.7458C57.3106 16.9627 57.6808 17.1272 58.0692 17.2338C58.4428 17.3369 58.8283 17.3902 59.2158 17.3923C59.7512 17.4265 60.2799 17.2589 60.698 16.9227C60.8663 16.768 60.9997 16.5792 61.0891 16.3688C61.1785 16.1584 61.2219 15.9314 61.2164 15.7028V14.7879C60.9859 15.1192 60.6726 15.3842 60.3076 15.5564C59.8936 15.7499 59.4409 15.8459 58.9841 15.837H58.6059C58.4778 15.8065 58.2033 15.7638 57.7885 15.6967C57.1983 15.5171 56.6919 15.1319 56.3613 14.611C55.8249 13.9129 55.545 13.0514 55.5684 12.1713C55.5457 11.3645 55.7394 10.5663 56.1295 9.85963C56.4418 9.28191 56.9438 8.82954 57.5507 8.57878C58.0192 8.38203 58.519 8.27049 59.0267 8.24941C59.7717 8.23126 60.4958 8.4973 61.0518 8.99353L61.2164 9.10942ZM57.2152 12.1591C57.1953 12.7323 57.3599 13.2967 57.6849 13.7693C57.9047 14.1354 58.2524 14.4071 58.6608 14.5317C58.9148 14.5934 59.1743 14.6301 59.4354 14.6415C59.674 14.6516 59.9118 14.6081 60.1313 14.5141C60.3509 14.4202 60.5466 14.2782 60.7041 14.0987C61.0305 13.6899 61.1954 13.1755 61.1676 12.6531C61.2175 11.8473 61.1413 11.0385 60.9419 10.2561C60.8303 10.0477 60.6689 9.87013 60.472 9.73923C60.2751 9.60834 60.0489 9.52817 59.8136 9.50587C59.6607 9.46359 59.5025 9.44306 59.3439 9.44488C58.8213 9.46515 58.3208 9.66066 57.9228 9.99992C57.4531 10.3537 57.2152 11.0734 57.2152 12.1408V12.1591Z" fill="white"/>
<path d="M63.6564 12.025C63.6504 11.2511 63.8802 10.4937 64.3151 9.8536C64.698 9.24902 65.2552 8.77476 65.9132 8.49344C66.4581 8.25445 67.0444 8.12393 67.6393 8.10918C68.0913 8.07993 68.5447 8.14091 68.973 8.28856C69.4013 8.4362 69.7959 8.66757 70.134 8.96919C70.6257 9.41487 71.0237 9.95396 71.305 10.555C71.5008 11.0204 71.6024 11.5201 71.6038 12.025C71.6092 12.5404 71.508 13.0514 71.3065 13.5258C71.1049 14.0003 70.8075 14.4279 70.4328 14.7819C70.0679 15.1549 69.6311 15.4499 69.1488 15.6491C68.6666 15.8483 68.1488 15.9475 67.6271 15.9408C67.0408 15.9251 66.4631 15.7967 65.9254 15.5626C65.2676 15.278 64.7107 14.8019 64.3274 14.1963C63.8885 13.5574 63.6544 12.8001 63.6564 12.025ZM65.23 12.025C65.2097 12.6985 65.45 13.354 65.901 13.8548C66.1186 14.0948 66.3855 14.285 66.6834 14.4124C66.9813 14.5397 67.3032 14.6013 67.6271 14.5928C67.9553 14.5969 68.2811 14.5346 68.5847 14.4098C68.8509 14.3053 69.0905 14.1427 69.2861 13.9341C69.4261 13.7849 69.5527 13.6237 69.6643 13.4522C69.9235 13.0109 70.0545 12.5061 70.0424 11.9945C70.0583 11.331 69.8105 10.6883 69.3532 10.2074C69.1317 9.97599 68.8657 9.79186 68.5711 9.66607C68.2766 9.54028 67.9596 9.47543 67.6393 9.47543C67.319 9.47543 67.002 9.54028 66.7075 9.66607C66.4129 9.79186 66.1469 9.97599 65.9254 10.2074C65.6954 10.4508 65.5156 10.7371 65.3963 11.05C65.277 11.363 65.2205 11.6963 65.23 12.0311V12.025Z" fill="white"/>
<path d="M72.4211 9.77429L72.7321 8.47513H73.4275V7.48703C73.3928 6.8601 73.588 6.24205 73.9764 5.74871C74.1661 5.54108 74.3999 5.37854 74.6606 5.273C74.9213 5.16746 75.2022 5.12159 75.483 5.13877C75.8353 5.14226 76.1851 5.19986 76.5199 5.30956L76.7699 5.40104L76.4162 6.62091L76.3308 6.57823H76.2576L76.1417 6.52943C76.0096 6.48606 75.872 6.46142 75.7331 6.45624C75.239 6.45624 74.989 6.87709 74.989 7.71271V8.49953H76.4772L76.1661 9.7987H74.989V15.8493H73.4275V9.7987L72.4211 9.77429Z" fill="white"/>
<path d="M76.0439 9.77446L76.3489 8.47529H77.0504V7.4872C77.0157 6.86027 77.2109 6.24222 77.5993 5.74888C77.7887 5.5409 78.0224 5.37812 78.2832 5.27255C78.5439 5.16698 78.8251 5.12132 79.1058 5.13894C79.4581 5.14291 79.8077 5.2005 80.1427 5.30972L80.3867 5.40121L80.0391 6.62108L79.9537 6.5784H79.8805L79.7645 6.5296C79.6323 6.48668 79.4949 6.46206 79.3559 6.45641C78.8558 6.45641 78.6118 6.87726 78.6118 7.71287V8.4997H80.1L79.789 9.79886H78.6118V15.8494H77.0504V9.79886L76.0439 9.77446Z" fill="white"/>
<path d="M88.1329 10.6467L82.6435 13.4951L82.7838 13.6537C83.0138 13.93 83.2994 14.1548 83.622 14.3135C83.9446 14.4722 84.297 14.5611 84.6563 14.5747C85.0226 14.5623 85.3812 14.4662 85.7047 14.2939C86.0282 14.1216 86.308 13.8775 86.5227 13.5805L86.6935 13.3487L87.8036 14.0318C87.7328 14.1612 87.6445 14.2802 87.5413 14.3856C87.17 14.8467 86.6958 15.2144 86.1567 15.4591C85.6206 15.7031 85.038 15.8279 84.4489 15.825C83.9354 15.8382 83.4247 15.7448 82.9491 15.5505C82.4735 15.3563 82.0434 15.0656 81.6859 14.6967C81.3236 14.3374 81.038 13.9084 80.8461 13.4356C80.6543 12.9628 80.5603 12.456 80.5697 11.9458C80.5623 11.3097 80.711 10.6814 81.0028 10.116C81.2716 9.58608 81.6703 9.13284 82.1617 8.79857C82.5581 8.51339 83.0052 8.30638 83.4791 8.18863C83.8119 8.1156 84.151 8.07476 84.4916 8.06666C85.2154 8.05834 85.9265 8.25726 86.541 8.63998C87.1633 9.02989 87.6624 9.58822 87.9804 10.2502L88.1329 10.6467ZM86.3702 10.2441C86.2704 10.0269 86.1233 9.83483 85.9397 9.68181C85.756 9.52879 85.5405 9.41876 85.3089 9.35972C85.0334 9.30297 84.7541 9.26627 84.4733 9.24992C84.1441 9.24539 83.818 9.31293 83.5177 9.4478C83.2174 9.58267 82.9502 9.78159 82.735 10.0306C82.2844 10.4881 82.0286 11.1025 82.0214 11.7446C82.0191 11.9749 82.0562 12.2038 82.1311 12.4216L86.3702 10.2441Z" fill="white"/>
<path d="M96.2877 10.6466L90.7983 13.495L90.9447 13.6536C91.1735 13.9297 91.458 14.1545 91.7796 14.3132C92.1013 14.4719 92.4527 14.561 92.8111 14.5746C93.1776 14.5631 93.5365 14.4674 93.8601 14.295C94.1838 14.1226 94.4635 13.8781 94.6775 13.5804L94.8543 13.3486L95.9584 14.0317C95.8896 14.1624 95.8011 14.2817 95.6961 14.3855C95.3283 14.8501 94.8531 15.2185 94.3115 15.459C93.7756 15.7037 93.1928 15.8286 92.6037 15.8249C92.0902 15.8381 91.5795 15.7447 91.1039 15.5505C90.6283 15.3562 90.1982 15.0655 89.8407 14.6966C89.4784 14.3373 89.1927 13.9083 89.0009 13.4355C88.8091 12.9627 88.715 12.4559 88.7245 11.9458C88.7171 11.3096 88.8658 10.6813 89.1576 10.1159C89.4264 9.58599 89.8251 9.13275 90.3165 8.79848C90.7142 8.51556 91.1609 8.30876 91.6339 8.18854C91.9687 8.11512 92.3098 8.07427 92.6525 8.06657C93.3761 8.05994 94.0867 8.25873 94.7019 8.63989C95.3224 9.03017 95.8194 9.58856 96.1352 10.2501L96.2877 10.6466ZM94.525 10.244C94.4235 10.0269 94.2751 9.83501 94.0905 9.68209C93.906 9.52917 93.6898 9.41905 93.4576 9.35963C93.1842 9.30301 92.9069 9.2663 92.6281 9.24983C92.298 9.24524 91.971 9.31272 91.6697 9.44756C91.3684 9.5824 91.1001 9.78136 90.8837 10.0305C90.4374 10.4904 90.1843 11.1037 90.1762 11.7445C90.175 11.9742 90.21 12.2027 90.2798 12.4215L94.525 10.244Z" fill="white"/>
<path d="M32.2811 10.2257V11.4456H36.4836C36.4625 11.9047 36.351 12.3552 36.1555 12.7712C35.9601 13.1871 35.6845 13.5605 35.3446 13.8698C35.0046 14.1792 34.607 14.4184 34.1745 14.5739C33.742 14.7293 33.2831 14.798 32.824 14.7758C30.5611 14.7758 28.9752 13.0924 28.9752 10.6831C28.9752 8.2739 30.5611 6.57829 32.824 6.57829C33.4826 6.54915 34.1351 6.71542 34.6994 7.0562C35.2638 7.39698 35.7147 7.89704 35.9956 8.49348H37.7461V8.43248C37.3677 7.45603 36.6945 6.62176 35.82 6.04568C34.9455 5.46959 33.9132 5.18034 32.8666 5.21813C32.1536 5.20788 31.4459 5.34231 30.7862 5.61328C30.1266 5.88424 29.5287 6.28612 29.0287 6.79464C28.5287 7.30316 28.1371 7.90775 27.8773 8.5719C27.6176 9.23605 27.4951 9.94598 27.5175 10.6588C27.5053 11.3813 27.6359 12.0991 27.9017 12.7711C28.1676 13.4431 28.5635 14.0559 29.0667 14.5745C30.083 15.5622 31.4496 16.1062 32.8666 16.0872C34.1829 16.1066 35.457 15.6234 36.4294 14.736C37.4017 13.8486 37.9992 12.6239 38.0999 11.3114V10.2074L32.2811 10.2257Z" fill="white"/>
</svg>
