<svg width="34" height="34" viewBox="0 0 34 34" fill="none" xmlns="http://www.w3.org/2000/svg">
<path d="M6.30501 27.695C9.1415 30.5315 12.9886 32.125 17 32.125C21.0114 32.125 24.8585 30.5315 27.695 27.695C30.5315 24.8585 32.125 21.0114 32.125 17C32.125 12.9886 30.5315 9.1415 27.695 6.30501C24.8585 3.46852 21.0114 1.875 17 1.875C12.9886 1.875 9.1415 3.46852 6.30501 6.30501C3.46852 9.1415 1.875 12.9886 1.875 17C1.875 21.0114 3.46852 24.8585 6.30501 27.695ZM28.844 28.844C25.7028 31.9853 21.4424 33.75 17 33.75C12.5576 33.75 8.2972 31.9853 5.15596 28.844C2.01473 25.7028 0.25 21.4424 0.25 17C0.25 12.5576 2.01473 8.2972 5.15596 5.15596C8.2972 2.01473 12.5576 0.25 17 0.25C21.4424 0.25 25.7028 2.01473 28.844 5.15596C31.9853 8.2972 33.75 12.5576 33.75 17C33.75 21.4424 31.9853 25.7028 28.844 28.844Z" fill="#1F3D87" stroke="#FBF8EA" stroke-width="0.5"/>
<path d="M17.0001 24.6875C18.3499 24.6883 19.6761 24.3334 20.8452 23.6586C22.0143 22.9838 22.985 22.0129 23.6596 20.8437L23.6604 20.8423C23.7133 20.7492 23.7842 20.6674 23.8689 20.6018C23.9536 20.5361 24.0504 20.4879 24.1538 20.4598C24.2572 20.4317 24.3652 20.4244 24.4714 20.4382C24.5777 20.452 24.6802 20.4867 24.773 20.5403C24.8658 20.5938 24.947 20.6652 25.0121 20.7504C25.0772 20.8355 25.1248 20.9326 25.1522 21.0362C25.1796 21.1398 25.1862 21.2478 25.1717 21.354C25.1572 21.4601 25.1218 21.5624 25.0676 21.6548L25.0668 21.6563C24.2496 23.0725 23.0738 24.2485 21.6577 25.0659C20.2416 25.8833 18.6352 26.3132 17.0002 26.3125H16.9999C15.3649 26.3132 13.7585 25.8833 12.3424 25.0659C10.9263 24.2485 9.75051 23.0725 8.93335 21.6563L8.93332 21.6563C8.82558 21.4696 8.79638 21.2479 8.85215 21.0397C8.90792 20.8316 9.04408 20.6541 9.23069 20.5464C9.4173 20.4386 9.63907 20.4094 9.8472 20.4652C10.0553 20.521 10.2328 20.6571 10.3406 20.8438C11.0151 22.013 11.9858 22.9839 13.1549 23.6586C14.324 24.3334 15.6502 24.6883 17.0001 24.6875ZM17.0001 24.6875C17 24.6875 17 24.6875 16.9999 24.6875L17.0001 24.4375L17.0002 24.6875C17.0002 24.6875 17.0001 24.6875 17.0001 24.6875ZM14.6251 13.8125C14.6251 14.6497 14.3981 15.3969 14.0444 15.9274C13.6895 16.4597 13.2269 16.75 12.7501 16.75C12.2732 16.75 11.8106 16.4597 11.4557 15.9274C11.102 15.3969 10.8751 14.6497 10.8751 13.8125C10.8751 12.9753 11.102 12.2281 11.4557 11.6976C11.8106 11.1653 12.2732 10.875 12.7501 10.875C13.2269 10.875 13.6895 11.1653 14.0444 11.6976C14.3981 12.2281 14.6251 12.9753 14.6251 13.8125ZM23.1251 13.8125C23.1251 14.6497 22.8981 15.3969 22.5444 15.9274C22.1895 16.4597 21.7269 16.75 21.2501 16.75C20.7732 16.75 20.3106 16.4597 19.9557 15.9274C19.602 15.3969 19.3751 14.6497 19.3751 13.8125C19.3751 12.9753 19.602 12.2281 19.9557 11.6976C20.3106 11.1653 20.7732 10.875 21.2501 10.875C21.7269 10.875 22.1895 11.1653 22.5444 11.6976C22.8981 12.2281 23.1251 12.9753 23.1251 13.8125Z" fill="#1F3D87" stroke="#FBF8EA" stroke-width="0.5"/>
</svg>
