<svg width="42" height="47" viewBox="0 0 42 47" fill="none" xmlns="http://www.w3.org/2000/svg">
<path d="M35.8151 5.70118L35.6028 5.75705L35.5919 5.97629C35.2725 12.3494 32.3152 18.1785 27.558 21.745L25.5369 23.2601L25.2167 23.5001L25.5369 23.7402L27.558 25.2553C32.3152 28.8218 35.2725 34.6507 35.5919 41.0238L35.6028 41.243L35.8151 41.2989C36.1311 41.3821 36.4015 41.7076 36.416 42.1378L36.2098 42.924L36.2 42.9614V43.0001C36.2 43.0684 36.1946 43.1108 36.1896 43.1354C36.1391 43.1362 36.0686 43.1269 35.9468 43.1101C35.8257 43.0933 35.6712 43.0724 35.5009 43.0724C35.5006 43.0724 35.5003 43.0724 35.5 43.0724L6.35649 42.8758H6.35447C6.17056 42.8758 5.98392 42.9131 5.82678 42.9489C5.77843 42.9599 5.73359 42.9705 5.6915 42.9805C5.58481 43.0058 5.49579 43.027 5.412 43.0392C5.3578 43.0472 5.32304 43.0482 5.30227 43.0476C5.30216 43.0466 5.30205 43.0456 5.30194 43.0445L5.56732 42.2716L5.58358 42.2243V42.1742C5.58358 41.726 5.86022 41.3844 6.18505 41.2989L6.39734 41.243L6.40832 41.0238C6.7275 34.6507 9.68476 28.8216 14.442 25.2553L16.4631 23.7402L16.7833 23.5001L16.4631 23.2601L14.442 21.745C9.68494 18.1785 6.72767 12.3496 6.40832 5.97649L6.39734 5.75725L6.18505 5.70138C5.86023 5.61589 5.58358 5.27431 5.58358 4.82607C5.58358 4.76749 5.59015 4.73583 5.59494 4.72073C5.60663 4.71808 5.62924 4.71472 5.66847 4.71493C5.75291 4.71538 5.85523 4.73065 5.99623 4.75169C6.00281 4.75268 6.00948 4.75367 6.01624 4.75468C6.15685 4.77564 6.32716 4.80007 6.5 4.80008L6.50154 4.80007L35.5 4.65103V4.35103L35.5015 4.65103L35.5008 4.65103C35.7006 4.65088 35.8893 4.59564 36.0423 4.53984C36.1201 4.51147 36.1947 4.48065 36.2596 4.45375L36.2603 4.45346C36.3208 4.42839 36.3712 4.40751 36.4166 4.39069V4.82588C36.4166 5.27412 36.14 5.61569 35.8151 5.70118ZM5.30686 43.0726C5.30831 43.0751 5.3088 43.0767 5.30869 43.0769C5.30857 43.077 5.30785 43.0758 5.30686 43.0726ZM5.59984 4.70911C5.59988 4.70916 5.59954 4.70982 5.59872 4.71096C5.59939 4.70963 5.5998 4.70906 5.59984 4.70911ZM36.5344 4.35693C36.5344 4.35695 36.5338 4.357 36.5328 4.357L36.5344 4.35693ZM36.4114 4.27611C36.4099 4.27248 36.4095 4.27028 36.4096 4.27008C36.4097 4.26989 36.4104 4.2717 36.4114 4.27611ZM33.7447 41.2758H34.0627L34.0442 40.9584C33.7106 35.2387 31.0346 29.9964 26.726 26.7665L23.3768 24.2557L23.1968 24.4958L23.3768 24.2557C23.1621 24.0948 23.0219 23.814 23.0219 23.5001C23.0219 23.1862 23.1621 22.9055 23.3768 22.7445L23.1968 22.5045L23.3768 22.7445L26.726 20.2337C31.0346 17.0036 33.7106 11.7616 34.0442 6.04193L34.0627 5.72446H33.7447H8.25547H7.93746L7.95598 6.04193C8.28959 11.7614 10.9656 17.0036 15.2742 20.2337L18.6234 22.7445L18.8033 22.5045L18.6234 22.7445C18.8381 22.9055 18.9783 23.1862 18.9783 23.5001C18.9783 23.814 18.8381 24.0948 18.6234 24.2557L18.8033 24.4958L18.6234 24.2557L15.2742 26.7665L15.4541 27.0066L15.2742 26.7665C10.9656 29.9966 8.28959 35.2389 7.95598 40.9584L7.93746 41.2758H8.25547H33.7447Z" fill="#1F3D87" stroke="#FBF8EA" stroke-width="0.6"/>
<path d="M24.9072 14.438H17.0932C16.4723 14.438 15.9155 14.8669 15.6937 15.516C15.472 16.1653 15.6313 16.9004 16.0942 17.3637L20.0011 21.2755C20.2855 21.5602 20.6428 21.7024 20.9998 21.7024C21.3569 21.7024 21.7144 21.5602 21.9986 21.2755L25.9055 17.3637C26.3684 16.9002 26.5277 16.165 26.306 15.516C26.085 14.8669 25.5282 14.438 24.9072 14.438Z" fill="#1F3D87"/>
<path d="M20.9606 25.6854L16.9811 28.5458C13.5016 31.1543 11.4133 34.422 11.4133 39.1087H21.417H31.4207C31.4207 34.422 29.3324 31.1543 25.8529 28.5458L21.8734 25.6854C21.5926 25.497 21.2417 25.497 20.9606 25.6854Z" fill="#1F3D87"/>
<rect x="4" y="4.5" width="34" height="1.3" rx="0.65" fill="#1F3D87"/>
<rect x="4" y="41.5" width="34" height="1.3" rx="0.65" fill="#1F3D87"/>
</svg>
