<svg width="23" height="23" viewBox="0 0 23 23" fill="none" xmlns="http://www.w3.org/2000/svg">
<path d="M11.5 16C12.6935 16 13.8381 15.5259 14.682 14.682C15.5259 13.8381 16 12.6935 16 11.5C16 10.3065 15.5259 9.16193 14.682 8.31802C13.8381 7.47411 12.6935 7 11.5 7C10.3065 7 9.16193 7.47411 8.31802 8.31802C7.47411 9.16193 7 10.3065 7 11.5C7 12.6935 7.47411 13.8381 8.31802 14.682C9.16193 15.5259 10.3065 16 11.5 16V16Z" stroke="white" stroke-width="1.6875" stroke-linecap="round" stroke-linejoin="round"/>
<path d="M1.375 16V7C1.375 5.50816 1.96763 4.07742 3.02252 3.02252C4.07742 1.96763 5.50816 1.375 7 1.375H16C17.4918 1.375 18.9226 1.96763 19.9775 3.02252C21.0324 4.07742 21.625 5.50816 21.625 7V16C21.625 17.4918 21.0324 18.9226 19.9775 19.9775C18.9226 21.0324 17.4918 21.625 16 21.625H7C5.50816 21.625 4.07742 21.0324 3.02252 19.9775C1.96763 18.9226 1.375 17.4918 1.375 16Z" stroke="white" stroke-width="1.6875"/>
<path d="M17.6875 5.32402L17.6991 5.31128" stroke="white" stroke-width="1.6875" stroke-linecap="round" stroke-linejoin="round"/>
</svg>
