<svg width="28" height="28" viewBox="0 0 28 28" fill="none" xmlns="http://www.w3.org/2000/svg">
<path d="M14.0188 19.5903C15.5006 19.5903 16.9217 19.0017 17.9695 17.9539C19.0173 16.9061 19.606 15.485 19.606 14.0032C19.606 12.5214 19.0173 11.1003 17.9695 10.0525C16.9217 9.00466 15.5006 8.41602 14.0188 8.41602C12.537 8.41602 11.1159 9.00466 10.0681 10.0525C9.02029 11.1003 8.43164 12.5214 8.43164 14.0032C8.43164 15.485 9.02029 16.9061 10.0681 17.9539C11.1159 19.0017 12.537 19.5903 14.0188 19.5903V19.5903Z" stroke="#262829" stroke-width="2.09518" stroke-linecap="round" stroke-linejoin="round"/>
<path d="M1.44727 19.5903V8.41596C1.44727 6.5637 2.18307 4.7873 3.49282 3.47756C4.80256 2.16781 6.57896 1.43201 8.43121 1.43201H19.6055C21.4578 1.43201 23.2342 2.16781 24.5439 3.47756C25.8537 4.7873 26.5895 6.5637 26.5895 8.41596V19.5903C26.5895 21.4425 25.8537 23.2189 24.5439 24.5287C23.2342 25.8384 21.4578 26.5742 19.6055 26.5742H8.43121C6.57896 26.5742 4.80256 25.8384 3.49282 24.5287C2.18307 23.2189 1.44727 21.4425 1.44727 19.5903Z" stroke="#262829" stroke-width="2.09518"/>
<path d="M21.7012 6.33537L21.7158 6.31927" stroke="#262829" stroke-width="2.09518" stroke-linecap="round" stroke-linejoin="round"/>
</svg>
