<svg width="28" height="28" viewBox="0 0 28 28" fill="none" xmlns="http://www.w3.org/2000/svg">
<path d="M19.6898 26.0807C19.4976 25.8026 19.4219 25.4542 19.4772 25.115C19.5326 24.7788 19.716 24.4763 19.9868 24.2807C20.2547 24.0881 20.5896 24.0148 20.9099 24.079C21.2302 24.1432 21.5126 24.3418 21.6931 24.6291C21.8737 24.9072 21.9377 25.2495 21.8795 25.5795C21.8184 25.9096 21.6378 26.203 21.3728 26.3924C21.1108 26.5819 20.7876 26.6583 20.4702 26.6003C20.1557 26.5422 19.8762 26.3558 19.6898 26.0807ZM12.6955 27.6332C12.582 27.4621 12.5383 27.2482 12.5761 27.0434C12.6111 26.8386 12.7217 26.6553 12.8877 26.5361C13.0508 26.4169 13.2517 26.3711 13.4497 26.4077C13.6448 26.4475 13.8195 26.5636 13.9331 26.7378C14.0466 26.9089 14.0903 27.1198 14.0524 27.3276C14.0175 27.5324 13.9039 27.7157 13.7409 27.8349C13.5778 27.9541 13.374 28 13.1789 27.9602C12.9838 27.9236 12.8091 27.8044 12.6955 27.6332ZM21.4194 6.54307C21.5854 6.79673 21.7339 7.06566 21.8562 7.34683C21.9814 7.62799 22.0804 7.91832 22.159 8.21476C22.2348 8.51426 22.2872 8.81987 22.3134 9.12548C22.3425 9.43414 22.3425 9.74281 22.3192 10.0515C22.919 10.2379 23.4665 10.6169 23.8537 11.1914C24.7215 12.4841 24.4769 14.2322 23.3471 15.2316C24.7564 17.5848 24.1653 20.702 21.9639 22.2973C21.0467 22.9635 19.9926 23.2386 18.9589 23.1988C18.7638 24.0087 18.3125 24.7513 17.6049 25.2647C16.2829 26.2213 14.5591 26.0441 13.4118 24.9683C13.3798 24.9958 13.3507 25.0233 13.3216 25.0508C13.3119 25.061 13.3012 25.0712 13.2895 25.0814C13.2798 25.0895 13.2701 25.0987 13.2604 25.1089C13.2507 25.117 13.24 25.1262 13.2284 25.1364C13.2187 25.1445 13.208 25.1527 13.1964 25.1608C11.1377 26.6553 8.31027 26.1113 6.88637 23.9506C6.76213 23.7611 6.65148 23.5635 6.55442 23.3577C6.45736 23.152 6.37583 22.9401 6.30983 22.7221C6.24188 22.502 6.18947 22.2789 6.15259 22.0528C6.1157 21.8266 6.09532 21.5984 6.09144 21.3682C4.95581 21.1726 3.8959 20.5125 3.22326 19.4184C2.08764 17.5725 2.43124 15.1796 3.92502 13.7432C2.82434 11.8851 3.28441 9.43109 5.01987 8.17503C5.54401 7.79302 6.12638 7.5852 6.71749 7.50269C6.82231 7.21236 6.94752 6.9312 7.09311 6.66226C7.23871 6.39027 7.40177 6.13355 7.58522 5.88906C7.76575 5.64763 7.96667 5.41843 8.18215 5.2045C8.39762 4.99363 8.62766 4.79804 8.86934 4.62384C10.8785 3.16608 13.441 3.22109 15.3744 4.51993C17.5438 3.69784 20.048 4.46187 21.4194 6.54307ZM1.86343 12.3955C2.11967 12.5789 2.29438 12.8631 2.34971 13.1809C2.40503 13.4988 2.34097 13.8258 2.16626 14.0947C1.99155 14.3606 1.72366 14.5439 1.42082 14.602C1.11508 14.6631 0.803511 14.5928 0.55018 14.4095C0.293937 14.2261 0.119225 13.9449 0.0639002 13.6271C0.00857496 13.3093 0.0755476 12.9792 0.247347 12.7133C0.422058 12.4475 0.689949 12.2641 0.995693 12.203C1.29853 12.1449 1.61009 12.2152 1.86343 12.3955ZM6.36806 4.93251C6.4991 5.13421 6.55151 5.38481 6.50783 5.62624C6.46707 5.86767 6.33603 6.0816 6.14094 6.22218C5.94876 6.36276 5.7129 6.41471 5.47995 6.37193C5.24991 6.32609 5.04608 6.18856 4.91505 5.98686C4.7811 5.78516 4.72869 5.53456 4.77237 5.29313C4.81313 5.05169 4.94417 4.83777 5.13926 4.69719C5.33144 4.55966 5.5673 4.50465 5.79734 4.54744C6.03029 4.59328 6.23412 4.7308 6.36806 4.93251ZM8.03947 0.0396874C8.20253 -4.18965e-05 8.37142 0.0305191 8.51119 0.125258C8.65387 0.216941 8.75287 0.36669 8.78781 0.534776C8.82275 0.705918 8.79072 0.883171 8.69755 1.02986C8.60728 1.17656 8.4646 1.27741 8.30153 1.31103C8.14138 1.34159 7.97832 1.30797 7.84146 1.21629C7.70751 1.12155 7.61142 0.974854 7.57648 0.809825C7.54445 0.644796 7.57357 0.470598 7.65801 0.326961C7.74537 0.183324 7.88223 0.0794167 8.03947 0.0396874ZM15.0745 0.980967C15.3366 0.825105 15.6452 0.78232 15.9364 0.864835C16.2276 0.944293 16.4751 1.14294 16.6294 1.41188C16.7867 1.68387 16.8333 2.00476 16.7634 2.31343C16.6964 2.61904 16.5159 2.88797 16.2625 3.05606C16.0005 3.22109 15.686 3.26999 15.389 3.19358C15.092 3.11413 14.8357 2.91853 14.6785 2.64043C14.5213 2.36538 14.4747 2.03838 14.5504 1.72666C14.6232 1.41493 14.8124 1.146 15.0745 0.980967ZM4.88884 23.3058C4.74907 23.3394 4.60348 23.3088 4.48409 23.2294C4.3618 23.1469 4.27735 23.0185 4.24823 22.8718C4.2162 22.7251 4.24241 22.5723 4.32103 22.444C4.39965 22.3187 4.52195 22.23 4.66172 22.1964C4.80149 22.1659 4.94708 22.1934 5.06938 22.2759C5.18876 22.3553 5.27321 22.4837 5.30232 22.6334C5.33435 22.7801 5.30815 22.9329 5.22953 23.0582C5.15091 23.1866 5.02861 23.2752 4.88884 23.3058ZM25.0563 7.87553C25.2165 8.09863 25.2835 8.38284 25.2398 8.65789C25.1961 8.936 25.0476 9.18354 24.8292 9.34246C24.6079 9.50138 24.3371 9.55944 24.075 9.50443C23.813 9.44637 23.5829 9.28134 23.4403 9.04602C23.3034 8.81987 23.2539 8.54787 23.3063 8.28811C23.3558 8.02528 23.5014 7.79302 23.7111 7.64327C23.9207 7.49046 24.177 7.42934 24.4274 7.47518C24.6807 7.51797 24.9049 7.6616 25.0563 7.87553ZM25.8396 14.7548C26.0289 14.7212 26.2182 14.764 26.3754 14.874C26.5326 14.984 26.6433 15.1552 26.6841 15.3508C26.7248 15.5433 26.6899 15.748 26.5909 15.9161C26.4919 16.0842 26.3346 16.2065 26.1512 16.2554C25.9619 16.2951 25.7668 16.2554 25.6067 16.1453C25.4465 16.0353 25.333 15.8611 25.2922 15.6655C25.2514 15.4669 25.2864 15.2621 25.3883 15.091C25.4931 14.9229 25.6533 14.8007 25.8396 14.7548ZM27.3043 11.2067C27.447 11.17 27.5955 11.1975 27.7207 11.28C27.843 11.3625 27.9303 11.4909 27.9624 11.6406C27.9915 11.7935 27.9653 11.9493 27.8837 12.0777C27.8022 12.206 27.677 12.2947 27.5343 12.3222C27.3946 12.3497 27.249 12.3222 27.1296 12.2396C27.0131 12.1571 26.9287 12.0288 26.8995 11.8821C26.8675 11.7354 26.8937 11.5856 26.9694 11.4573C27.0451 11.332 27.1645 11.2434 27.3043 11.2067Z" fill="white"/>
<path d="M18.5686 18.5627C19.0869 18.6391 19.6023 18.7155 19.6839 19.2625C19.9023 20.7233 17.203 20.1793 16.5857 19.8646C15.616 19.3664 15.0278 18.2296 15.2811 17.1049C15.3772 16.6709 15.9014 15.5463 16.3935 14.4858C16.8565 13.4957 17.2903 12.5635 17.3253 12.3068C17.3922 11.769 17.1185 11.7231 16.9467 11.7139C16.7283 11.7017 16.5536 11.8148 16.3381 12.1571C16.2013 12.3741 15.1035 14.657 14.3697 16.182C14.0407 16.8726 13.7815 17.4075 13.7204 17.5266C13.3768 18.2112 12.9429 18.3732 12.5061 18.3518C11.8685 18.3151 11.5773 17.9576 11.6704 17.3127C11.6937 17.1416 12.0053 16.3439 12.3402 15.4821C12.7362 14.4614 13.1671 13.352 13.2079 13.0678C13.2516 12.7469 13.1904 12.4046 12.8876 12.2396C12.5819 12.0746 12.2208 12.3282 12.113 12.5177C12.0432 12.643 11.5511 13.951 11.0357 15.3293C10.4649 16.8512 9.86219 18.4557 9.75153 18.6696C9.38173 19.3725 8.99445 19.5956 8.41208 19.6262C7.03186 19.6934 6.00689 18.5015 6.45823 17.0438C6.49608 16.9215 6.57179 16.6526 6.67662 16.2889C7.13087 14.6906 8.11507 11.228 8.6625 10.2073C9.11384 9.3638 10.3718 8.72202 11.2424 9.11626C11.5278 9.24767 11.8859 9.42798 12.1538 9.56245C12.3081 9.64191 12.4363 9.70303 12.5032 9.73665C12.876 9.90779 13.272 9.51966 13.4874 9.30879C13.5166 9.27823 13.5428 9.25378 13.5661 9.23239C13.5874 9.21405 13.6078 9.1947 13.6272 9.17432C13.7874 9.03069 13.9446 8.88399 14.1368 8.79842C14.3552 8.69757 14.7017 8.65784 14.9667 8.69757C15.2316 8.74036 15.3918 8.84426 15.4908 8.92984C15.6539 9.06736 15.7674 9.17738 15.9072 9.32102L15.9945 9.40659C16.2508 9.6633 16.4401 9.54106 16.5769 9.45548L16.6119 9.43104L16.6206 9.42798C16.8594 9.28129 17.0516 9.16515 17.7591 9.17738C18.4958 9.19266 19.3432 9.46771 19.5179 10.7849C19.614 11.497 19.0782 12.753 18.5191 14.058C17.9309 15.4363 17.3165 16.8726 17.4068 17.7711C17.4709 18.4038 18.0212 18.4832 18.5686 18.5627Z" fill="#1F3D87"/>
</svg>
