<svg width="35" height="35" viewBox="0 0 35 35" fill="none" xmlns="http://www.w3.org/2000/svg">
<g clip-path="url(#clip0_1_394)">
<path d="M24.6819 32.3817C24.4433 32.0364 24.3493 31.6039 24.418 31.1827C24.4867 30.7653 24.7144 30.3896 25.0507 30.1468C25.3833 29.9078 25.799 29.8167 26.1967 29.8964C26.5944 29.9761 26.9451 30.2227 27.1693 30.5794C27.3934 30.9247 27.4729 31.3496 27.4006 31.7594C27.3247 32.1692 27.1006 32.5335 26.7716 32.7688C26.4462 33.004 26.0449 33.0989 25.6508 33.0268C25.2604 32.9547 24.9133 32.7232 24.6819 32.3817V32.3817ZM15.9979 34.3093C15.8569 34.0968 15.8027 33.8312 15.8497 33.577C15.893 33.3227 16.0304 33.0951 16.2365 32.9471C16.439 32.7991 16.6884 32.7422 16.9343 32.7877C17.1765 32.837 17.3934 32.9812 17.5344 33.1975C17.6754 33.41 17.7296 33.6718 17.6826 33.9298C17.6392 34.1841 17.4982 34.4117 17.2958 34.5597C17.0933 34.7077 16.8403 34.7646 16.598 34.7153C16.3558 34.6698 16.1389 34.5218 15.9979 34.3093V34.3093ZM26.8294 8.12395C27.0355 8.43888 27.2199 8.77279 27.3717 9.12188C27.5272 9.47097 27.6501 9.83144 27.7477 10.1995C27.8417 10.5714 27.9068 10.9508 27.9393 11.3302C27.9755 11.7135 27.9755 12.0967 27.9465 12.4799C28.6913 12.7114 29.371 13.1819 29.8518 13.8953C30.9292 15.5003 30.6255 17.6707 29.2228 18.9115C30.9726 21.8332 30.2387 25.7035 27.5055 27.6842C26.3667 28.5114 25.0579 28.8529 23.7745 28.8036C23.5322 29.8091 22.9719 30.7311 22.0933 31.3686C20.452 32.5563 18.3117 32.3362 16.8873 31.0005C16.8475 31.0347 16.8113 31.0688 16.7752 31.103C16.7631 31.1156 16.7499 31.1283 16.7354 31.1409C16.7234 31.1511 16.7113 31.1624 16.6993 31.1751C16.6872 31.1852 16.6739 31.1966 16.6595 31.2092C16.6474 31.2194 16.6342 31.2295 16.6197 31.2396C14.0637 33.0951 10.5532 32.4197 8.7853 29.737C8.63104 29.5017 8.49366 29.2564 8.37315 29.0009C8.25264 28.7454 8.15141 28.4823 8.06946 28.2116C7.98511 27.9384 7.92003 27.6615 7.87423 27.3807C7.82844 27.0999 7.80313 26.8166 7.79831 26.5307C6.38833 26.2879 5.07235 25.4683 4.23721 24.1099C2.82723 21.818 3.25384 18.847 5.10851 17.0636C3.74191 14.7566 4.31313 11.7097 6.46787 10.1502C7.11863 9.67587 7.8417 9.41785 8.57561 9.3154C8.70576 8.95493 8.86122 8.60584 9.04199 8.27193C9.22275 7.93422 9.42521 7.61549 9.65298 7.31194C9.87713 7.01218 10.1266 6.7276 10.3941 6.46199C10.6617 6.20017 10.9473 5.95733 11.2473 5.74105C13.7419 3.9311 16.9234 3.9994 19.324 5.61204C22.0174 4.59133 25.1266 5.53994 26.8294 8.12395V8.12395ZM2.54885 15.3903C2.867 15.6179 3.08392 15.9708 3.15261 16.3654C3.2213 16.7601 3.14177 17.1661 2.92485 17.5C2.70793 17.8301 2.37532 18.0578 1.99932 18.1299C1.61971 18.2057 1.23287 18.1185 0.918339 17.8908C0.60019 17.6631 0.38327 17.314 0.314579 16.9194C0.245888 16.5248 0.32904 16.115 0.542345 15.7849C0.759265 15.4548 1.09187 15.2271 1.47148 15.1512C1.84748 15.0791 2.23432 15.1664 2.54885 15.3903ZM8.14177 6.12428C8.30446 6.37472 8.36954 6.68586 8.31531 6.98562C8.26469 7.28538 8.102 7.55099 7.85977 7.72553C7.62116 7.90008 7.32832 7.96458 7.03909 7.91146C6.75348 7.85454 6.50041 7.68379 6.33772 7.43336C6.17141 7.18293 6.10634 6.87179 6.16057 6.57203C6.21118 6.27227 6.37387 6.00666 6.6161 5.83211C6.85471 5.66136 7.14755 5.59306 7.43316 5.64619C7.72239 5.7031 7.97546 5.87385 8.14177 6.12428ZM10.217 0.0494054C10.4194 7.78793e-05 10.6291 0.0380222 10.8027 0.155649C10.9798 0.269482 11.1027 0.455409 11.1461 0.664103C11.1895 0.876591 11.1497 1.09667 11.034 1.2788C10.922 1.46093 10.7448 1.58615 10.5423 1.62789C10.3435 1.66583 10.141 1.62409 9.97113 1.51026C9.80482 1.39263 9.68551 1.2105 9.64213 1.0056C9.60236 0.800702 9.63852 0.58442 9.74336 0.406082C9.85182 0.227744 10.0217 0.098733 10.217 0.0494054V0.0494054ZM18.9516 1.21809C19.277 1.02457 19.6602 0.971451 20.0217 1.0739C20.3833 1.17256 20.6906 1.41919 20.8822 1.7531C21.0774 2.09081 21.1353 2.48922 21.0485 2.87246C20.9653 3.2519 20.7412 3.58581 20.4267 3.7945C20.1013 3.9994 19.7108 4.06011 19.3421 3.96525C18.9733 3.8666 18.6552 3.62376 18.4599 3.27846C18.2647 2.93696 18.2068 2.53096 18.3008 2.14393C18.3912 1.7569 18.6262 1.42299 18.9516 1.21809V1.21809ZM6.30518 28.9364C6.13165 28.9781 5.95088 28.9402 5.80265 28.8415C5.65081 28.7391 5.54596 28.5797 5.50981 28.3976C5.47004 28.2154 5.50258 28.0257 5.60019 27.8663C5.69781 27.7108 5.84965 27.6007 6.02319 27.559C6.19672 27.5211 6.37749 27.5552 6.52933 27.6577C6.67756 27.7563 6.78241 27.9157 6.81856 28.1016C6.85833 28.2837 6.82579 28.4735 6.72818 28.629C6.63056 28.7884 6.47872 28.8984 6.30518 28.9364ZM31.345 9.77832C31.5438 10.0553 31.627 10.4082 31.5727 10.7497C31.5185 11.095 31.3341 11.4023 31.063 11.5996C30.7882 11.797 30.452 11.869 30.1266 11.8007C29.8012 11.7287 29.5156 11.5238 29.3385 11.2316C29.1685 10.9508 29.1071 10.6131 29.1721 10.2906C29.2336 9.96424 29.4144 9.67587 29.6747 9.48994C29.935 9.30022 30.2531 9.22433 30.564 9.28125C30.8786 9.33437 31.157 9.51271 31.345 9.77832ZM32.3175 18.3196C32.5525 18.2778 32.7875 18.331 32.9827 18.4676C33.1779 18.6042 33.3153 18.8166 33.3659 19.0595C33.4165 19.2985 33.3732 19.5528 33.2502 19.7615C33.1273 19.9701 32.9321 20.1219 32.7043 20.1826C32.4693 20.232 32.2271 20.1826 32.0283 20.046C31.8294 19.9094 31.6884 19.6932 31.6378 19.4503C31.5872 19.2037 31.6306 18.9494 31.7571 18.737C31.8873 18.5283 32.0861 18.3765 32.3175 18.3196V18.3196ZM34.136 13.9142C34.3131 13.8687 34.4975 13.9029 34.653 14.0053C34.8048 14.1078 34.9133 14.2671 34.9531 14.4531C34.9892 14.6428 34.9567 14.8363 34.8554 14.9957C34.7542 15.155 34.5988 15.2651 34.4216 15.2992C34.2481 15.3334 34.0673 15.2992 33.9191 15.1968C33.7745 15.0943 33.6696 14.9349 33.6335 14.7528C33.5937 14.5707 33.6262 14.3848 33.7202 14.2254C33.8142 14.0698 33.9625 13.9598 34.136 13.9142V13.9142Z" fill="#262829"/>
<path d="M23.2907 23.0474C23.9342 23.1422 24.5742 23.2371 24.6754 23.9163C24.9465 25.73 21.5951 25.0546 20.8287 24.6638C19.6248 24.0453 18.8945 22.6338 19.209 21.2374C19.3283 20.6986 19.9791 19.3023 20.5901 17.9856C21.1649 16.7562 21.7036 15.5989 21.747 15.2802C21.8301 14.6124 21.4903 14.5554 21.277 14.5441C21.0058 14.5289 20.7889 14.6693 20.5214 15.0943C20.3515 15.3637 18.9885 18.1981 18.0774 20.0915C17.6689 20.9491 17.3471 21.6131 17.2712 21.7611C16.8446 22.611 16.3059 22.8121 15.7636 22.7856C14.9718 22.74 14.6103 22.2961 14.726 21.4955C14.7549 21.283 15.1418 20.2926 15.5575 19.2226C16.0492 17.9552 16.5843 16.5779 16.6349 16.225C16.6891 15.8266 16.6132 15.4016 16.2372 15.1967C15.8576 14.9918 15.4093 15.3067 15.2755 15.542C15.1888 15.6976 14.5778 17.3216 13.9379 19.0329C13.2293 20.9225 12.4809 22.9146 12.3435 23.1802C11.8843 24.0529 11.4035 24.3299 10.6804 24.3678C8.96678 24.4513 7.69418 22.9715 8.25456 21.1615C8.30156 21.0098 8.39555 20.6759 8.52571 20.2243C9.0897 18.2398 10.3117 13.9407 10.9914 12.6734C11.5517 11.6261 13.1136 10.8293 14.1945 11.3188C14.5488 11.482 14.9935 11.7058 15.3261 11.8728C15.5178 11.9714 15.6768 12.0473 15.76 12.0891C16.2227 12.3016 16.7144 11.8197 16.982 11.5578C17.0181 11.5199 17.0507 11.4895 17.0796 11.463C17.1061 11.4402 17.1314 11.4162 17.1555 11.3909C17.3543 11.2126 17.5496 11.0304 17.7882 10.9242C18.0593 10.799 18.4896 10.7496 18.8186 10.799C19.1475 10.8521 19.3464 10.9811 19.4693 11.0873C19.6718 11.2581 19.8128 11.3947 19.9863 11.573L20.0948 11.6793C20.4129 11.998 20.6479 11.8462 20.8178 11.74L20.8612 11.7096L20.8721 11.7058C21.1685 11.5237 21.4071 11.3795 22.2857 11.3947C23.2003 11.4137 24.2524 11.7552 24.4693 13.3906C24.5886 14.2747 23.9234 15.8342 23.2293 17.4544C22.499 19.1657 21.7361 20.9491 21.8482 22.0646C21.9277 22.8501 22.611 22.9487 23.2907 23.0474Z" fill="white"/>
</g>
<defs>
<clipPath id="clip0_1_394">
<rect width="34.7645" height="34.7645" fill="white" transform="translate(0.235352 6.10352e-05)"/>
</clipPath>
</defs>
</svg>
