<svg width="30" height="22" viewBox="0 0 30 22" fill="none" xmlns="http://www.w3.org/2000/svg">
<path d="M7.20842 9.16673C6.8925 9.16673 6.58933 9.21489 6.28758 9.25881C6.38533 8.93014 6.48592 8.59581 6.64742 8.29548C6.80892 7.85915 7.06108 7.4809 7.31183 7.09981C7.5215 6.68756 7.89125 6.40848 8.16325 6.05573C8.448 5.71289 8.83617 5.48481 9.14358 5.20006C9.44533 4.90256 9.84058 4.75381 10.1551 4.54415C10.4838 4.35573 10.7699 4.14748 11.0759 4.04831L11.8395 3.73381L12.511 3.45473L11.8239 0.709229L10.9782 0.913228C10.7076 0.981228 10.3775 1.06056 10.0021 1.15548C9.61817 1.22631 9.20875 1.4204 8.75258 1.59748C8.30208 1.79865 7.78075 1.93465 7.29625 2.25765C6.80892 2.56648 6.2465 2.82431 5.75067 3.23798C5.27042 3.6644 4.691 4.03415 4.26317 4.57673C3.79567 5.0839 3.33383 5.61656 2.97542 6.2229C2.56033 6.8009 2.27842 7.43556 1.98092 8.06314C1.71175 8.69073 1.495 9.33248 1.31792 9.95581C0.982167 11.2053 0.832 12.3925 0.773917 13.4082C0.72575 14.4254 0.754084 15.2711 0.813584 15.8831C0.834834 16.1721 0.8745 16.4526 0.902834 16.6467L0.93825 16.8847L0.975084 16.8762C1.22705 18.0532 1.8071 19.1349 2.64812 19.996C3.48913 20.8571 4.55676 21.4625 5.72749 21.7422C6.89822 22.0219 8.12422 21.9645 9.26365 21.5765C10.4031 21.1885 11.4094 20.4859 12.1662 19.5499C12.923 18.6139 13.3993 17.4827 13.5401 16.2873C13.6809 15.0919 13.4803 13.8811 12.9617 12.7948C12.443 11.7086 11.6275 10.7915 10.6093 10.1494C9.5912 9.50734 8.4121 9.16665 7.20842 9.16673ZM22.7917 9.16673C22.4758 9.16673 22.1727 9.21489 21.8709 9.25881C21.9687 8.93014 22.0693 8.59581 22.2307 8.29548C22.3923 7.85915 22.6444 7.4809 22.8952 7.09981C23.1048 6.68756 23.4746 6.40848 23.7466 6.05573C24.0313 5.71289 24.4195 5.48481 24.7269 5.20006C25.0287 4.90256 25.4239 4.75381 25.7384 4.54415C26.0671 4.35573 26.3532 4.14748 26.6592 4.04831L27.4228 3.73381L28.0943 3.45473L27.4072 0.709229L26.5615 0.913228C26.2909 0.981228 25.9608 1.06056 25.5854 1.15548C25.2015 1.22631 24.7921 1.4204 24.3359 1.59748C23.8868 1.80006 23.3641 1.93465 22.8796 2.25906C22.3923 2.5679 21.8298 2.82573 21.334 3.23939C20.8538 3.66581 20.2743 4.03556 19.8465 4.57673C19.379 5.0839 18.9172 5.61656 18.5588 6.2229C18.1437 6.8009 17.8617 7.43556 17.5643 8.06314C17.2951 8.69073 17.0783 9.33248 16.9012 9.95581C16.5655 11.2053 16.4153 12.3925 16.3573 13.4082C16.3091 14.4254 16.3374 15.2711 16.3969 15.8831C16.4182 16.1721 16.4578 16.4526 16.4862 16.6467L16.5216 16.8847L16.5584 16.8762C16.8104 18.0532 17.3904 19.1349 18.2314 19.996C19.0725 20.8571 20.1401 21.4625 21.3108 21.7422C22.4816 22.0219 23.7075 21.9645 24.847 21.5765C25.9864 21.1885 26.9927 20.4859 27.7495 19.5499C28.5063 18.6139 28.9826 17.4827 29.1234 16.2873C29.2642 15.0919 29.0637 13.8811 28.545 12.7948C28.0264 11.7086 27.2108 10.7915 26.1927 10.1494C25.1745 9.50734 23.9954 9.16665 22.7917 9.16673Z" fill="#1F3D87"/>
</svg>
