<svg width="57" height="57" viewBox="0 0 57 57" fill="none" xmlns="http://www.w3.org/2000/svg">
<path d="M27.4167 39.5833V29H47.5001C48.0887 29 48.6181 28.8016 49.0015 28.4181C49.385 28.0347 49.5834 27.5053 49.5834 26.9167V9.5C49.5834 8.91138 49.385 8.382 49.0015 7.99853C48.6181 7.61506 48.0887 7.41667 47.5001 7.41667H25.3334H24.8334V7.91667V12.1667H22.6667V5.25H47.5001C49.9156 5.25 51.7501 7.08448 51.7501 9.5V26.9167C51.7501 29.3322 49.9156 31.1667 47.5001 31.1667H30.0834H29.5834V31.6667V42.25H19.4751H19.2981L19.1605 42.3614L10.0001 49.7769V42.75V42.25H9.50008H7.91675C5.50122 42.25 3.66675 40.4155 3.66675 38V20.5833C3.66675 18.1678 5.50122 16.3333 7.91675 16.3333H28.0001V18.5H7.91675C7.32812 18.5 6.79875 18.6984 6.41528 19.0819C6.0318 19.4653 5.83341 19.9947 5.83341 20.5833V38C5.83341 38.5886 6.03181 39.118 6.41528 39.5015C6.79875 39.8849 7.32812 40.0833 7.91675 40.0833H12.1667V44.175V45.2022L12.9752 44.5685L18.6977 40.0833H26.9167H27.4167V39.5833Z" fill="#1F3D87" stroke="#FBF8EA"/>
<path d="M14.5667 33.2251H14.2201L14.0985 33.5495L13.2702 35.7584H10.5353L15.3895 22.6667H18.4974L23.4987 35.7584H20.7715L19.9431 33.5495L19.8215 33.2251H19.475H14.5667ZM17.4175 25.9716L16.9417 24.4964L16.4658 25.9716L14.8825 30.8799L14.6717 31.5334H15.3583H18.525H19.2116L19.0008 30.8799L17.4175 25.9716Z" fill="#1F3D87" stroke="#FBF8EA"/>
<path d="M35.3453 22.7631C34.2762 21.694 33.4381 20.3826 32.8352 18.7083H35.1482C35.813 20.072 36.748 21.1408 37.68 21.9174L37.9893 22.1752L38.3071 21.928C39.8321 20.7419 41.1729 18.8807 41.5054 15.8885L41.567 15.3333H41.0084H32.1667V13.1667H36.4167H36.9167V12.6667V10H39.0834V12.6667V13.1667H39.5834H43.8334V14.25C43.8334 18.2395 42.4573 20.9607 40.6549 22.7631L40.0997 23.3183L40.8375 23.5866C41.7522 23.9192 42.6214 24.0843 43.2601 24.1667C43.4799 24.1951 43.6735 24.2138 43.8334 24.2261V26.4016C42.3175 26.3147 40.1456 25.8471 38.2237 24.8861L38.0001 24.7743L37.7765 24.8861C35.8368 25.856 33.7739 26.3225 32.1667 26.4037V24.2373C32.8173 24.2023 33.9515 24.0713 35.1774 23.5809L35.8815 23.2993L35.3453 22.7631Z" fill="#1F3D87" stroke="#FBF8EA"/>
</svg>
